<mxfile host="app.diagrams.net" modified="2024-02-25T14:43:32.144Z" agent="Mozilla/5.0 (Macintosh; Intel Mac OS X 10_15_7) AppleWebKit/605.1.15 (KHTML, like Gecko) Version/16.3 Safari/605.1.15" etag="5eozrL_Z82pZfMPKuYB3" version="23.1.6" type="github">
  <diagram name="Страница 1" id="hVIG6fZbSnTpJ2coA_qM">
    <mxGraphModel dx="5180" dy="2557" grid="0" gridSize="10" guides="1" tooltips="1" connect="1" arrows="1" fold="1" page="0" pageScale="1" pageWidth="827" pageHeight="1169" math="0" shadow="0">
      <root>
        <mxCell id="0" />
        <mxCell id="1" parent="0" />
        <mxCell id="F5EBHadNRmTIwF_CADEw-40" style="edgeStyle=orthogonalEdgeStyle;rounded=0;orthogonalLoop=1;jettySize=auto;html=1;dashed=1;endArrow=ERoneToMany;endFill=0;" parent="1" source="F5EBHadNRmTIwF_CADEw-1" target="F5EBHadNRmTIwF_CADEw-36" edge="1">
          <mxGeometry relative="1" as="geometry">
            <Array as="points">
              <mxPoint x="-517" y="561" />
              <mxPoint x="-517" y="561" />
            </Array>
          </mxGeometry>
        </mxCell>
        <mxCell id="F5EBHadNRmTIwF_CADEw-1" value="Подстрока проекта расчёта загрузки ОПР" style="swimlane;fontStyle=0;childLayout=stackLayout;horizontal=1;startSize=30;horizontalStack=0;resizeParent=1;resizeParentMax=0;resizeLast=0;collapsible=1;marginBottom=0;align=center;fontSize=14;" parent="1" vertex="1">
          <mxGeometry x="-941" y="493" width="340" height="450" as="geometry" />
        </mxCell>
        <mxCell id="F5EBHadNRmTIwF_CADEw-2" value="Наименование заказа" style="text;strokeColor=none;fillColor=none;spacingLeft=4;spacingRight=4;overflow=hidden;rotatable=0;points=[[0,0.5],[1,0.5]];portConstraint=eastwest;fontSize=12;whiteSpace=wrap;html=1;" parent="F5EBHadNRmTIwF_CADEw-1" vertex="1">
          <mxGeometry y="30" width="340" height="30" as="geometry" />
        </mxCell>
        <mxCell id="F5EBHadNRmTIwF_CADEw-3" value="Процент продвижения заказа" style="text;strokeColor=none;fillColor=none;spacingLeft=4;spacingRight=4;overflow=hidden;rotatable=0;points=[[0,0.5],[1,0.5]];portConstraint=eastwest;fontSize=12;whiteSpace=wrap;html=1;" parent="F5EBHadNRmTIwF_CADEw-1" vertex="1">
          <mxGeometry y="60" width="340" height="30" as="geometry" />
        </mxCell>
        <mxCell id="F5EBHadNRmTIwF_CADEw-4" value="Процент продвижения наряд-заказа" style="text;strokeColor=none;fillColor=none;spacingLeft=4;spacingRight=4;overflow=hidden;rotatable=0;points=[[0,0.5],[1,0.5]];portConstraint=eastwest;fontSize=12;whiteSpace=wrap;html=1;" parent="F5EBHadNRmTIwF_CADEw-1" vertex="1">
          <mxGeometry y="90" width="340" height="30" as="geometry" />
        </mxCell>
        <mxCell id="F5EBHadNRmTIwF_CADEw-7" value="Наименование наряд-заказа" style="text;strokeColor=none;fillColor=none;spacingLeft=4;spacingRight=4;overflow=hidden;rotatable=0;points=[[0,0.5],[1,0.5]];portConstraint=eastwest;fontSize=12;whiteSpace=wrap;html=1;" parent="F5EBHadNRmTIwF_CADEw-1" vertex="1">
          <mxGeometry y="120" width="340" height="30" as="geometry" />
        </mxCell>
        <mxCell id="F5EBHadNRmTIwF_CADEw-8" value="Наименование вида работ" style="text;strokeColor=none;fillColor=none;spacingLeft=4;spacingRight=4;overflow=hidden;rotatable=0;points=[[0,0.5],[1,0.5]];portConstraint=eastwest;fontSize=12;whiteSpace=wrap;html=1;" parent="F5EBHadNRmTIwF_CADEw-1" vertex="1">
          <mxGeometry y="150" width="340" height="30" as="geometry" />
        </mxCell>
        <mxCell id="F5EBHadNRmTIwF_CADEw-9" value="Наименование профессии" style="text;strokeColor=none;fillColor=none;spacingLeft=4;spacingRight=4;overflow=hidden;rotatable=0;points=[[0,0.5],[1,0.5]];portConstraint=eastwest;fontSize=12;whiteSpace=wrap;html=1;" parent="F5EBHadNRmTIwF_CADEw-1" vertex="1">
          <mxGeometry y="180" width="340" height="30" as="geometry" />
        </mxCell>
        <mxCell id="F5EBHadNRmTIwF_CADEw-10" value="Наименование сегмента движения денежных средств" style="text;strokeColor=none;fillColor=none;spacingLeft=4;spacingRight=4;overflow=hidden;rotatable=0;points=[[0,0.5],[1,0.5]];portConstraint=eastwest;fontSize=12;whiteSpace=wrap;html=1;" parent="F5EBHadNRmTIwF_CADEw-1" vertex="1">
          <mxGeometry y="210" width="340" height="30" as="geometry" />
        </mxCell>
        <mxCell id="F5EBHadNRmTIwF_CADEw-11" value="Наименование раздела движения денежных средств" style="text;strokeColor=none;fillColor=none;spacingLeft=4;spacingRight=4;overflow=hidden;rotatable=0;points=[[0,0.5],[1,0.5]];portConstraint=eastwest;fontSize=12;whiteSpace=wrap;html=1;" parent="F5EBHadNRmTIwF_CADEw-1" vertex="1">
          <mxGeometry y="240" width="340" height="30" as="geometry" />
        </mxCell>
        <mxCell id="F5EBHadNRmTIwF_CADEw-12" value="Трудоёмкость" style="text;strokeColor=none;fillColor=none;spacingLeft=4;spacingRight=4;overflow=hidden;rotatable=0;points=[[0,0.5],[1,0.5]];portConstraint=eastwest;fontSize=12;whiteSpace=wrap;html=1;" parent="F5EBHadNRmTIwF_CADEw-1" vertex="1">
          <mxGeometry y="270" width="340" height="30" as="geometry" />
        </mxCell>
        <mxCell id="F5EBHadNRmTIwF_CADEw-13" value="Процент переработки" style="text;strokeColor=none;fillColor=none;spacingLeft=4;spacingRight=4;overflow=hidden;rotatable=0;points=[[0,0.5],[1,0.5]];portConstraint=eastwest;fontSize=12;whiteSpace=wrap;html=1;" parent="F5EBHadNRmTIwF_CADEw-1" vertex="1">
          <mxGeometry y="300" width="340" height="30" as="geometry" />
        </mxCell>
        <mxCell id="F5EBHadNRmTIwF_CADEw-14" value="Коэффициент изменения фонда рабочего времени" style="text;strokeColor=none;fillColor=none;spacingLeft=4;spacingRight=4;overflow=hidden;rotatable=0;points=[[0,0.5],[1,0.5]];portConstraint=eastwest;fontSize=12;whiteSpace=wrap;html=1;" parent="F5EBHadNRmTIwF_CADEw-1" vertex="1">
          <mxGeometry y="330" width="340" height="30" as="geometry" />
        </mxCell>
        <mxCell id="F5EBHadNRmTIwF_CADEw-15" value="Выработка" style="text;strokeColor=none;fillColor=none;spacingLeft=4;spacingRight=4;overflow=hidden;rotatable=0;points=[[0,0.5],[1,0.5]];portConstraint=eastwest;fontSize=12;whiteSpace=wrap;html=1;" parent="F5EBHadNRmTIwF_CADEw-1" vertex="1">
          <mxGeometry y="360" width="340" height="30" as="geometry" />
        </mxCell>
        <mxCell id="F5EBHadNRmTIwF_CADEw-16" value="Явочная численность" style="text;strokeColor=none;fillColor=none;spacingLeft=4;spacingRight=4;overflow=hidden;rotatable=0;points=[[0,0.5],[1,0.5]];portConstraint=eastwest;fontSize=12;whiteSpace=wrap;html=1;" parent="F5EBHadNRmTIwF_CADEw-1" vertex="1">
          <mxGeometry y="390" width="340" height="30" as="geometry" />
        </mxCell>
        <mxCell id="F5EBHadNRmTIwF_CADEw-17" value="Средне-списочная численность персонала" style="text;strokeColor=none;fillColor=none;spacingLeft=4;spacingRight=4;overflow=hidden;rotatable=0;points=[[0,0.5],[1,0.5]];portConstraint=eastwest;fontSize=12;whiteSpace=wrap;html=1;" parent="F5EBHadNRmTIwF_CADEw-1" vertex="1">
          <mxGeometry y="420" width="340" height="30" as="geometry" />
        </mxCell>
        <mxCell id="aHR9_frTfQv7lHE0gGob-188" style="edgeStyle=orthogonalEdgeStyle;rounded=0;orthogonalLoop=1;jettySize=auto;html=1;dashed=1;strokeColor=default;align=center;verticalAlign=middle;fontFamily=Helvetica;fontSize=11;fontColor=default;labelBackgroundColor=default;endArrow=ERoneToMany;endFill=0;" edge="1" parent="1" source="F5EBHadNRmTIwF_CADEw-18" target="F5EBHadNRmTIwF_CADEw-1">
          <mxGeometry relative="1" as="geometry">
            <Array as="points">
              <mxPoint x="-555" y="869" />
              <mxPoint x="-555" y="869" />
            </Array>
          </mxGeometry>
        </mxCell>
        <mxCell id="F5EBHadNRmTIwF_CADEw-18" value="Проект расчёта загрузки ОПР" style="swimlane;fontStyle=0;childLayout=stackLayout;horizontal=1;startSize=26;horizontalStack=0;resizeParent=1;resizeParentMax=0;resizeLast=0;collapsible=1;marginBottom=0;align=center;fontSize=14;" parent="1" vertex="1">
          <mxGeometry x="-567" y="726" width="240" height="296" as="geometry" />
        </mxCell>
        <mxCell id="F5EBHadNRmTIwF_CADEw-19" value="Средне-списочная численность" style="text;strokeColor=none;fillColor=none;spacingLeft=4;spacingRight=4;overflow=hidden;rotatable=0;points=[[0,0.5],[1,0.5]];portConstraint=eastwest;fontSize=12;whiteSpace=wrap;html=1;" parent="F5EBHadNRmTIwF_CADEw-18" vertex="1">
          <mxGeometry y="26" width="240" height="30" as="geometry" />
        </mxCell>
        <mxCell id="F5EBHadNRmTIwF_CADEw-20" value="Статус" style="text;strokeColor=none;fillColor=none;spacingLeft=4;spacingRight=4;overflow=hidden;rotatable=0;points=[[0,0.5],[1,0.5]];portConstraint=eastwest;fontSize=12;whiteSpace=wrap;html=1;" parent="F5EBHadNRmTIwF_CADEw-18" vertex="1">
          <mxGeometry y="56" width="240" height="30" as="geometry" />
        </mxCell>
        <mxCell id="F5EBHadNRmTIwF_CADEw-21" value="Регистрационный номер" style="text;strokeColor=none;fillColor=none;spacingLeft=4;spacingRight=4;overflow=hidden;rotatable=0;points=[[0,0.5],[1,0.5]];portConstraint=eastwest;fontSize=12;whiteSpace=wrap;html=1;" parent="F5EBHadNRmTIwF_CADEw-18" vertex="1">
          <mxGeometry y="86" width="240" height="30" as="geometry" />
        </mxCell>
        <mxCell id="F5EBHadNRmTIwF_CADEw-22" value="Дата начала" style="text;strokeColor=none;fillColor=none;spacingLeft=4;spacingRight=4;overflow=hidden;rotatable=0;points=[[0,0.5],[1,0.5]];portConstraint=eastwest;fontSize=12;whiteSpace=wrap;html=1;" parent="F5EBHadNRmTIwF_CADEw-18" vertex="1">
          <mxGeometry y="116" width="240" height="30" as="geometry" />
        </mxCell>
        <mxCell id="F5EBHadNRmTIwF_CADEw-23" value="Дата окончания" style="text;strokeColor=none;fillColor=none;spacingLeft=4;spacingRight=4;overflow=hidden;rotatable=0;points=[[0,0.5],[1,0.5]];portConstraint=eastwest;fontSize=12;whiteSpace=wrap;html=1;" parent="F5EBHadNRmTIwF_CADEw-18" vertex="1">
          <mxGeometry y="146" width="240" height="30" as="geometry" />
        </mxCell>
        <mxCell id="F5EBHadNRmTIwF_CADEw-24" value="Наименование" style="text;strokeColor=none;fillColor=none;spacingLeft=4;spacingRight=4;overflow=hidden;rotatable=0;points=[[0,0.5],[1,0.5]];portConstraint=eastwest;fontSize=12;whiteSpace=wrap;html=1;" parent="F5EBHadNRmTIwF_CADEw-18" vertex="1">
          <mxGeometry y="176" width="240" height="30" as="geometry" />
        </mxCell>
        <mxCell id="F5EBHadNRmTIwF_CADEw-25" value="Примечание" style="text;strokeColor=none;fillColor=none;spacingLeft=4;spacingRight=4;overflow=hidden;rotatable=0;points=[[0,0.5],[1,0.5]];portConstraint=eastwest;fontSize=12;whiteSpace=wrap;html=1;" parent="F5EBHadNRmTIwF_CADEw-18" vertex="1">
          <mxGeometry y="206" width="240" height="30" as="geometry" />
        </mxCell>
        <mxCell id="F5EBHadNRmTIwF_CADEw-26" value="Дата создания" style="text;strokeColor=none;fillColor=none;spacingLeft=4;spacingRight=4;overflow=hidden;rotatable=0;points=[[0,0.5],[1,0.5]];portConstraint=eastwest;fontSize=12;whiteSpace=wrap;html=1;" parent="F5EBHadNRmTIwF_CADEw-18" vertex="1">
          <mxGeometry y="236" width="240" height="30" as="geometry" />
        </mxCell>
        <mxCell id="F5EBHadNRmTIwF_CADEw-27" value="Дата утверждения" style="text;strokeColor=none;fillColor=none;spacingLeft=4;spacingRight=4;overflow=hidden;rotatable=0;points=[[0,0.5],[1,0.5]];portConstraint=eastwest;fontSize=12;whiteSpace=wrap;html=1;" parent="F5EBHadNRmTIwF_CADEw-18" vertex="1">
          <mxGeometry y="266" width="240" height="30" as="geometry" />
        </mxCell>
        <mxCell id="F5EBHadNRmTIwF_CADEw-36" value="История изменения подстроки расчёта загрузки ОПР" style="swimlane;fontStyle=0;childLayout=stackLayout;horizontal=1;startSize=26;horizontalStack=0;resizeParent=1;resizeParentMax=0;resizeLast=0;collapsible=1;marginBottom=0;align=center;fontSize=14;" parent="1" vertex="1">
          <mxGeometry x="-217" y="443" width="390" height="236" as="geometry" />
        </mxCell>
        <mxCell id="F5EBHadNRmTIwF_CADEw-37" value="Трудоёмкость" style="text;strokeColor=none;fillColor=none;spacingLeft=4;spacingRight=4;overflow=hidden;rotatable=0;points=[[0,0.5],[1,0.5]];portConstraint=eastwest;fontSize=12;whiteSpace=wrap;html=1;" parent="F5EBHadNRmTIwF_CADEw-36" vertex="1">
          <mxGeometry y="26" width="390" height="30" as="geometry" />
        </mxCell>
        <mxCell id="F5EBHadNRmTIwF_CADEw-38" value="Процент переработки" style="text;strokeColor=none;fillColor=none;spacingLeft=4;spacingRight=4;overflow=hidden;rotatable=0;points=[[0,0.5],[1,0.5]];portConstraint=eastwest;fontSize=12;whiteSpace=wrap;html=1;" parent="F5EBHadNRmTIwF_CADEw-36" vertex="1">
          <mxGeometry y="56" width="390" height="30" as="geometry" />
        </mxCell>
        <mxCell id="F5EBHadNRmTIwF_CADEw-39" value="Коэффициент изменения фонда рабочего времени" style="text;strokeColor=none;fillColor=none;spacingLeft=4;spacingRight=4;overflow=hidden;rotatable=0;points=[[0,0.5],[1,0.5]];portConstraint=eastwest;fontSize=12;whiteSpace=wrap;html=1;" parent="F5EBHadNRmTIwF_CADEw-36" vertex="1">
          <mxGeometry y="86" width="390" height="30" as="geometry" />
        </mxCell>
        <mxCell id="F5EBHadNRmTIwF_CADEw-41" value="Выработка" style="text;strokeColor=none;fillColor=none;spacingLeft=4;spacingRight=4;overflow=hidden;rotatable=0;points=[[0,0.5],[1,0.5]];portConstraint=eastwest;fontSize=12;whiteSpace=wrap;html=1;" parent="F5EBHadNRmTIwF_CADEw-36" vertex="1">
          <mxGeometry y="116" width="390" height="30" as="geometry" />
        </mxCell>
        <mxCell id="F5EBHadNRmTIwF_CADEw-42" value="Явочная численность" style="text;strokeColor=none;fillColor=none;spacingLeft=4;spacingRight=4;overflow=hidden;rotatable=0;points=[[0,0.5],[1,0.5]];portConstraint=eastwest;fontSize=12;whiteSpace=wrap;html=1;" parent="F5EBHadNRmTIwF_CADEw-36" vertex="1">
          <mxGeometry y="146" width="390" height="30" as="geometry" />
        </mxCell>
        <mxCell id="F5EBHadNRmTIwF_CADEw-43" value="Среднее-списочная численность персонала" style="text;strokeColor=none;fillColor=none;spacingLeft=4;spacingRight=4;overflow=hidden;rotatable=0;points=[[0,0.5],[1,0.5]];portConstraint=eastwest;fontSize=12;whiteSpace=wrap;html=1;" parent="F5EBHadNRmTIwF_CADEw-36" vertex="1">
          <mxGeometry y="176" width="390" height="30" as="geometry" />
        </mxCell>
        <mxCell id="F5EBHadNRmTIwF_CADEw-44" value="Дата создания" style="text;strokeColor=none;fillColor=none;spacingLeft=4;spacingRight=4;overflow=hidden;rotatable=0;points=[[0,0.5],[1,0.5]];portConstraint=eastwest;fontSize=12;whiteSpace=wrap;html=1;" parent="F5EBHadNRmTIwF_CADEw-36" vertex="1">
          <mxGeometry y="206" width="390" height="30" as="geometry" />
        </mxCell>
        <mxCell id="F5EBHadNRmTIwF_CADEw-79" style="edgeStyle=orthogonalEdgeStyle;rounded=0;orthogonalLoop=1;jettySize=auto;html=1;dashed=1;endArrow=ERoneToMany;endFill=0;" parent="1" source="F5EBHadNRmTIwF_CADEw-50" target="F5EBHadNRmTIwF_CADEw-1" edge="1">
          <mxGeometry relative="1" as="geometry" />
        </mxCell>
        <mxCell id="aHR9_frTfQv7lHE0gGob-163" style="edgeStyle=orthogonalEdgeStyle;rounded=0;orthogonalLoop=1;jettySize=auto;html=1;dashed=1;strokeColor=default;align=center;verticalAlign=middle;fontFamily=Helvetica;fontSize=11;fontColor=default;labelBackgroundColor=default;endArrow=ERoneToMany;endFill=0;" edge="1" parent="1" source="F5EBHadNRmTIwF_CADEw-50" target="aHR9_frTfQv7lHE0gGob-151">
          <mxGeometry relative="1" as="geometry">
            <Array as="points">
              <mxPoint x="-781" y="1967" />
            </Array>
          </mxGeometry>
        </mxCell>
        <mxCell id="aHR9_frTfQv7lHE0gGob-184" style="edgeStyle=orthogonalEdgeStyle;rounded=0;orthogonalLoop=1;jettySize=auto;html=1;dashed=1;strokeColor=default;align=center;verticalAlign=middle;fontFamily=Helvetica;fontSize=11;fontColor=default;labelBackgroundColor=default;endArrow=ERoneToMany;endFill=0;" edge="1" parent="1" source="F5EBHadNRmTIwF_CADEw-50" target="aHR9_frTfQv7lHE0gGob-79">
          <mxGeometry relative="1" as="geometry" />
        </mxCell>
        <mxCell id="aHR9_frTfQv7lHE0gGob-190" style="edgeStyle=orthogonalEdgeStyle;rounded=0;orthogonalLoop=1;jettySize=auto;html=1;dashed=1;strokeColor=default;align=center;verticalAlign=middle;fontFamily=Helvetica;fontSize=11;fontColor=default;labelBackgroundColor=default;endArrow=ERoneToMany;endFill=0;" edge="1" parent="1" source="F5EBHadNRmTIwF_CADEw-50" target="aHR9_frTfQv7lHE0gGob-106">
          <mxGeometry relative="1" as="geometry">
            <Array as="points">
              <mxPoint x="-720" y="1751" />
            </Array>
          </mxGeometry>
        </mxCell>
        <mxCell id="F5EBHadNRmTIwF_CADEw-50" value="Вид работ" style="swimlane;fontStyle=0;childLayout=stackLayout;horizontal=1;startSize=26;horizontalStack=0;resizeParent=1;resizeParentMax=0;resizeLast=0;collapsible=1;marginBottom=0;align=center;fontSize=14;" parent="1" vertex="1">
          <mxGeometry x="-851" y="1494" width="160" height="56" as="geometry" />
        </mxCell>
        <mxCell id="F5EBHadNRmTIwF_CADEw-51" value="Наименование" style="text;strokeColor=none;fillColor=none;spacingLeft=4;spacingRight=4;overflow=hidden;rotatable=0;points=[[0,0.5],[1,0.5]];portConstraint=eastwest;fontSize=12;whiteSpace=wrap;html=1;" parent="F5EBHadNRmTIwF_CADEw-50" vertex="1">
          <mxGeometry y="26" width="160" height="30" as="geometry" />
        </mxCell>
        <mxCell id="F5EBHadNRmTIwF_CADEw-78" style="edgeStyle=orthogonalEdgeStyle;rounded=0;orthogonalLoop=1;jettySize=auto;html=1;dashed=1;endArrow=ERoneToMany;endFill=0;" parent="1" source="F5EBHadNRmTIwF_CADEw-65" target="F5EBHadNRmTIwF_CADEw-1" edge="1">
          <mxGeometry relative="1" as="geometry" />
        </mxCell>
        <mxCell id="aHR9_frTfQv7lHE0gGob-42" style="edgeStyle=orthogonalEdgeStyle;rounded=0;orthogonalLoop=1;jettySize=auto;html=1;dashed=1;strokeColor=default;align=center;verticalAlign=middle;fontFamily=Helvetica;fontSize=11;fontColor=default;labelBackgroundColor=default;endArrow=ERoneToMany;endFill=0;" edge="1" parent="1" source="F5EBHadNRmTIwF_CADEw-65" target="aHR9_frTfQv7lHE0gGob-35">
          <mxGeometry relative="1" as="geometry">
            <Array as="points">
              <mxPoint x="-995" y="358" />
            </Array>
          </mxGeometry>
        </mxCell>
        <mxCell id="aHR9_frTfQv7lHE0gGob-55" style="edgeStyle=orthogonalEdgeStyle;rounded=0;orthogonalLoop=1;jettySize=auto;html=1;dashed=1;strokeColor=default;align=center;verticalAlign=middle;fontFamily=Helvetica;fontSize=11;fontColor=default;labelBackgroundColor=default;endArrow=ERoneToMany;endFill=0;" edge="1" parent="1" source="F5EBHadNRmTIwF_CADEw-65" target="aHR9_frTfQv7lHE0gGob-50">
          <mxGeometry relative="1" as="geometry">
            <Array as="points">
              <mxPoint x="-1270" y="835" />
              <mxPoint x="-1270" y="835" />
            </Array>
          </mxGeometry>
        </mxCell>
        <mxCell id="aHR9_frTfQv7lHE0gGob-164" style="edgeStyle=orthogonalEdgeStyle;rounded=0;orthogonalLoop=1;jettySize=auto;html=1;dashed=1;strokeColor=default;align=center;verticalAlign=middle;fontFamily=Helvetica;fontSize=11;fontColor=default;labelBackgroundColor=default;endArrow=ERoneToMany;endFill=0;" edge="1" parent="1" source="F5EBHadNRmTIwF_CADEw-65" target="aHR9_frTfQv7lHE0gGob-142">
          <mxGeometry relative="1" as="geometry">
            <Array as="points">
              <mxPoint x="-1192" y="1152" />
              <mxPoint x="-142" y="1152" />
            </Array>
          </mxGeometry>
        </mxCell>
        <mxCell id="aHR9_frTfQv7lHE0gGob-179" style="edgeStyle=orthogonalEdgeStyle;rounded=0;orthogonalLoop=1;jettySize=auto;html=1;dashed=1;strokeColor=default;align=center;verticalAlign=middle;fontFamily=Helvetica;fontSize=11;fontColor=default;labelBackgroundColor=default;endArrow=ERoneToMany;endFill=0;" edge="1" parent="1" source="F5EBHadNRmTIwF_CADEw-65" target="aHR9_frTfQv7lHE0gGob-90">
          <mxGeometry relative="1" as="geometry">
            <Array as="points">
              <mxPoint x="-1192" y="1377" />
            </Array>
          </mxGeometry>
        </mxCell>
        <mxCell id="F5EBHadNRmTIwF_CADEw-65" value="Наряд-заказ" style="swimlane;fontStyle=0;childLayout=stackLayout;horizontal=1;startSize=26;horizontalStack=0;resizeParent=1;resizeParentMax=0;resizeLast=0;collapsible=1;marginBottom=0;align=center;fontSize=14;" parent="1" vertex="1">
          <mxGeometry x="-1292" y="457" width="200" height="296" as="geometry" />
        </mxCell>
        <mxCell id="F5EBHadNRmTIwF_CADEw-66" value="Наименование" style="text;strokeColor=none;fillColor=none;spacingLeft=4;spacingRight=4;overflow=hidden;rotatable=0;points=[[0,0.5],[1,0.5]];portConstraint=eastwest;fontSize=12;whiteSpace=wrap;html=1;" parent="F5EBHadNRmTIwF_CADEw-65" vertex="1">
          <mxGeometry y="26" width="200" height="30" as="geometry" />
        </mxCell>
        <mxCell id="F5EBHadNRmTIwF_CADEw-67" value="Описание" style="text;strokeColor=none;fillColor=none;spacingLeft=4;spacingRight=4;overflow=hidden;rotatable=0;points=[[0,0.5],[1,0.5]];portConstraint=eastwest;fontSize=12;whiteSpace=wrap;html=1;" parent="F5EBHadNRmTIwF_CADEw-65" vertex="1">
          <mxGeometry y="56" width="200" height="30" as="geometry" />
        </mxCell>
        <mxCell id="F5EBHadNRmTIwF_CADEw-72" value="Плановая трудоёмкость" style="text;strokeColor=none;fillColor=none;spacingLeft=4;spacingRight=4;overflow=hidden;rotatable=0;points=[[0,0.5],[1,0.5]];portConstraint=eastwest;fontSize=12;whiteSpace=wrap;html=1;" parent="F5EBHadNRmTIwF_CADEw-65" vertex="1">
          <mxGeometry y="86" width="200" height="30" as="geometry" />
        </mxCell>
        <mxCell id="F5EBHadNRmTIwF_CADEw-73" value="Фактическая трудоёмкость" style="text;strokeColor=none;fillColor=none;spacingLeft=4;spacingRight=4;overflow=hidden;rotatable=0;points=[[0,0.5],[1,0.5]];portConstraint=eastwest;fontSize=12;whiteSpace=wrap;html=1;" parent="F5EBHadNRmTIwF_CADEw-65" vertex="1">
          <mxGeometry y="116" width="200" height="30" as="geometry" />
        </mxCell>
        <mxCell id="F5EBHadNRmTIwF_CADEw-74" value="Плановые затраты" style="text;strokeColor=none;fillColor=none;spacingLeft=4;spacingRight=4;overflow=hidden;rotatable=0;points=[[0,0.5],[1,0.5]];portConstraint=eastwest;fontSize=12;whiteSpace=wrap;html=1;" parent="F5EBHadNRmTIwF_CADEw-65" vertex="1">
          <mxGeometry y="146" width="200" height="30" as="geometry" />
        </mxCell>
        <mxCell id="F5EBHadNRmTIwF_CADEw-75" value="Фактические затраты" style="text;strokeColor=none;fillColor=none;spacingLeft=4;spacingRight=4;overflow=hidden;rotatable=0;points=[[0,0.5],[1,0.5]];portConstraint=eastwest;fontSize=12;whiteSpace=wrap;html=1;" parent="F5EBHadNRmTIwF_CADEw-65" vertex="1">
          <mxGeometry y="176" width="200" height="30" as="geometry" />
        </mxCell>
        <mxCell id="F5EBHadNRmTIwF_CADEw-76" value="Дата начала действия" style="text;strokeColor=none;fillColor=none;spacingLeft=4;spacingRight=4;overflow=hidden;rotatable=0;points=[[0,0.5],[1,0.5]];portConstraint=eastwest;fontSize=12;whiteSpace=wrap;html=1;" parent="F5EBHadNRmTIwF_CADEw-65" vertex="1">
          <mxGeometry y="206" width="200" height="30" as="geometry" />
        </mxCell>
        <mxCell id="F5EBHadNRmTIwF_CADEw-77" value="Дата окончания действия" style="text;strokeColor=none;fillColor=none;spacingLeft=4;spacingRight=4;overflow=hidden;rotatable=0;points=[[0,0.5],[1,0.5]];portConstraint=eastwest;fontSize=12;whiteSpace=wrap;html=1;" parent="F5EBHadNRmTIwF_CADEw-65" vertex="1">
          <mxGeometry y="236" width="200" height="30" as="geometry" />
        </mxCell>
        <mxCell id="F5EBHadNRmTIwF_CADEw-68" value="Статус" style="text;strokeColor=none;fillColor=none;spacingLeft=4;spacingRight=4;overflow=hidden;rotatable=0;points=[[0,0.5],[1,0.5]];portConstraint=eastwest;fontSize=12;whiteSpace=wrap;html=1;" parent="F5EBHadNRmTIwF_CADEw-65" vertex="1">
          <mxGeometry y="266" width="200" height="30" as="geometry" />
        </mxCell>
        <mxCell id="F5EBHadNRmTIwF_CADEw-96" style="edgeStyle=orthogonalEdgeStyle;rounded=0;orthogonalLoop=1;jettySize=auto;html=1;dashed=1;endArrow=ERoneToMany;endFill=0;" parent="1" source="F5EBHadNRmTIwF_CADEw-90" target="F5EBHadNRmTIwF_CADEw-18" edge="1">
          <mxGeometry relative="1" as="geometry" />
        </mxCell>
        <mxCell id="aHR9_frTfQv7lHE0gGob-150" style="edgeStyle=orthogonalEdgeStyle;rounded=0;orthogonalLoop=1;jettySize=auto;html=1;dashed=1;strokeColor=default;align=center;verticalAlign=middle;fontFamily=Helvetica;fontSize=11;fontColor=default;labelBackgroundColor=default;endArrow=ERoneToMany;endFill=0;" edge="1" parent="1" source="F5EBHadNRmTIwF_CADEw-90" target="aHR9_frTfQv7lHE0gGob-142">
          <mxGeometry relative="1" as="geometry">
            <Array as="points">
              <mxPoint x="-295" y="1440" />
              <mxPoint x="-187" y="1440" />
            </Array>
          </mxGeometry>
        </mxCell>
        <mxCell id="aHR9_frTfQv7lHE0gGob-166" style="edgeStyle=orthogonalEdgeStyle;rounded=0;orthogonalLoop=1;jettySize=auto;html=1;dashed=1;strokeColor=default;align=center;verticalAlign=middle;fontFamily=Helvetica;fontSize=11;fontColor=default;labelBackgroundColor=default;endArrow=ERoneToMany;endFill=0;" edge="1" parent="1" source="F5EBHadNRmTIwF_CADEw-90" target="aHR9_frTfQv7lHE0gGob-130">
          <mxGeometry relative="1" as="geometry">
            <Array as="points">
              <mxPoint x="-295" y="1056" />
              <mxPoint x="172" y="1056" />
            </Array>
          </mxGeometry>
        </mxCell>
        <mxCell id="aHR9_frTfQv7lHE0gGob-168" style="edgeStyle=orthogonalEdgeStyle;rounded=0;orthogonalLoop=1;jettySize=auto;html=1;dashed=1;strokeColor=default;align=center;verticalAlign=middle;fontFamily=Helvetica;fontSize=11;fontColor=default;labelBackgroundColor=default;endArrow=ERoneToMany;endFill=0;" edge="1" parent="1" source="F5EBHadNRmTIwF_CADEw-90" target="aHR9_frTfQv7lHE0gGob-90">
          <mxGeometry relative="1" as="geometry">
            <Array as="points">
              <mxPoint x="-665" y="1280" />
              <mxPoint x="-665" y="1280" />
            </Array>
          </mxGeometry>
        </mxCell>
        <mxCell id="F5EBHadNRmTIwF_CADEw-90" value="Год" style="swimlane;fontStyle=0;childLayout=stackLayout;horizontal=1;startSize=26;horizontalStack=0;resizeParent=1;resizeParentMax=0;resizeLast=0;collapsible=1;marginBottom=0;align=center;fontSize=14;" parent="1" vertex="1">
          <mxGeometry x="-375" y="1233" width="160" height="56" as="geometry" />
        </mxCell>
        <mxCell id="F5EBHadNRmTIwF_CADEw-91" value="Первая дата года" style="text;strokeColor=none;fillColor=none;spacingLeft=4;spacingRight=4;overflow=hidden;rotatable=0;points=[[0,0.5],[1,0.5]];portConstraint=eastwest;fontSize=12;whiteSpace=wrap;html=1;" parent="F5EBHadNRmTIwF_CADEw-90" vertex="1">
          <mxGeometry y="26" width="160" height="30" as="geometry" />
        </mxCell>
        <mxCell id="F5EBHadNRmTIwF_CADEw-101" style="edgeStyle=orthogonalEdgeStyle;rounded=0;orthogonalLoop=1;jettySize=auto;html=1;dashed=1;endArrow=ERoneToMany;endFill=0;" parent="1" source="F5EBHadNRmTIwF_CADEw-97" target="F5EBHadNRmTIwF_CADEw-65" edge="1">
          <mxGeometry relative="1" as="geometry">
            <Array as="points">
              <mxPoint x="-1360" y="581" />
              <mxPoint x="-1360" y="581" />
            </Array>
          </mxGeometry>
        </mxCell>
        <mxCell id="F5EBHadNRmTIwF_CADEw-97" value="Договор" style="swimlane;fontStyle=0;childLayout=stackLayout;horizontal=1;startSize=26;horizontalStack=0;resizeParent=1;resizeParentMax=0;resizeLast=0;collapsible=1;marginBottom=0;align=center;fontSize=14;" parent="1" vertex="1">
          <mxGeometry x="-1542" y="478" width="160" height="206" as="geometry" />
        </mxCell>
        <mxCell id="F5EBHadNRmTIwF_CADEw-98" value="Номер" style="text;strokeColor=none;fillColor=none;spacingLeft=4;spacingRight=4;overflow=hidden;rotatable=0;points=[[0,0.5],[1,0.5]];portConstraint=eastwest;fontSize=12;whiteSpace=wrap;html=1;" parent="F5EBHadNRmTIwF_CADEw-97" vertex="1">
          <mxGeometry y="26" width="160" height="30" as="geometry" />
        </mxCell>
        <mxCell id="F5EBHadNRmTIwF_CADEw-99" value="Описание" style="text;strokeColor=none;fillColor=none;spacingLeft=4;spacingRight=4;overflow=hidden;rotatable=0;points=[[0,0.5],[1,0.5]];portConstraint=eastwest;fontSize=12;whiteSpace=wrap;html=1;" parent="F5EBHadNRmTIwF_CADEw-97" vertex="1">
          <mxGeometry y="56" width="160" height="30" as="geometry" />
        </mxCell>
        <mxCell id="F5EBHadNRmTIwF_CADEw-100" value="Тип налога" style="text;strokeColor=none;fillColor=none;spacingLeft=4;spacingRight=4;overflow=hidden;rotatable=0;points=[[0,0.5],[1,0.5]];portConstraint=eastwest;fontSize=12;whiteSpace=wrap;html=1;" parent="F5EBHadNRmTIwF_CADEw-97" vertex="1">
          <mxGeometry y="86" width="160" height="30" as="geometry" />
        </mxCell>
        <mxCell id="aHR9_frTfQv7lHE0gGob-43" value="Тип договора" style="text;strokeColor=none;fillColor=none;spacingLeft=4;spacingRight=4;overflow=hidden;rotatable=0;points=[[0,0.5],[1,0.5]];portConstraint=eastwest;fontSize=11;whiteSpace=wrap;html=1;fontFamily=Helvetica;fontColor=default;labelBackgroundColor=default;" vertex="1" parent="F5EBHadNRmTIwF_CADEw-97">
          <mxGeometry y="116" width="160" height="30" as="geometry" />
        </mxCell>
        <mxCell id="aHR9_frTfQv7lHE0gGob-44" value="Дата заключения договора" style="text;strokeColor=none;fillColor=none;spacingLeft=4;spacingRight=4;overflow=hidden;rotatable=0;points=[[0,0.5],[1,0.5]];portConstraint=eastwest;fontSize=11;whiteSpace=wrap;html=1;fontFamily=Helvetica;fontColor=default;labelBackgroundColor=default;" vertex="1" parent="F5EBHadNRmTIwF_CADEw-97">
          <mxGeometry y="146" width="160" height="30" as="geometry" />
        </mxCell>
        <mxCell id="aHR9_frTfQv7lHE0gGob-45" value="Статус" style="text;strokeColor=none;fillColor=none;spacingLeft=4;spacingRight=4;overflow=hidden;rotatable=0;points=[[0,0.5],[1,0.5]];portConstraint=eastwest;fontSize=11;whiteSpace=wrap;html=1;fontFamily=Helvetica;fontColor=default;labelBackgroundColor=default;" vertex="1" parent="F5EBHadNRmTIwF_CADEw-97">
          <mxGeometry y="176" width="160" height="30" as="geometry" />
        </mxCell>
        <mxCell id="F5EBHadNRmTIwF_CADEw-110" style="edgeStyle=orthogonalEdgeStyle;rounded=0;orthogonalLoop=1;jettySize=auto;html=1;dashed=1;endArrow=ERoneToMany;endFill=0;" parent="1" source="F5EBHadNRmTIwF_CADEw-103" target="F5EBHadNRmTIwF_CADEw-1" edge="1">
          <mxGeometry relative="1" as="geometry">
            <Array as="points">
              <mxPoint x="-829" y="472" />
              <mxPoint x="-829" y="472" />
            </Array>
          </mxGeometry>
        </mxCell>
        <mxCell id="F5EBHadNRmTIwF_CADEw-103" value="Заказ" style="swimlane;fontStyle=0;childLayout=stackLayout;horizontal=1;startSize=26;horizontalStack=0;resizeParent=1;resizeParentMax=0;resizeLast=0;collapsible=1;marginBottom=0;align=center;fontSize=14;" parent="1" vertex="1">
          <mxGeometry x="-909" y="336" width="160" height="56" as="geometry" />
        </mxCell>
        <mxCell id="F5EBHadNRmTIwF_CADEw-104" value="Наименование" style="text;strokeColor=none;fillColor=none;spacingLeft=4;spacingRight=4;overflow=hidden;rotatable=0;points=[[0,0.5],[1,0.5]];portConstraint=eastwest;fontSize=12;whiteSpace=wrap;html=1;" parent="F5EBHadNRmTIwF_CADEw-103" vertex="1">
          <mxGeometry y="26" width="160" height="30" as="geometry" />
        </mxCell>
        <mxCell id="aHR9_frTfQv7lHE0gGob-1" value="Группа продукции" style="swimlane;fontStyle=0;childLayout=stackLayout;horizontal=1;startSize=26;horizontalStack=0;resizeParent=1;resizeParentMax=0;resizeLast=0;collapsible=1;marginBottom=0;align=center;fontSize=14;" vertex="1" parent="1">
          <mxGeometry x="-567" y="-194" width="160" height="56" as="geometry" />
        </mxCell>
        <mxCell id="aHR9_frTfQv7lHE0gGob-9" style="edgeStyle=orthogonalEdgeStyle;rounded=0;orthogonalLoop=1;jettySize=auto;html=1;dashed=1;endArrow=ERoneToMany;endFill=0;" edge="1" parent="1" source="aHR9_frTfQv7lHE0gGob-5" target="aHR9_frTfQv7lHE0gGob-1">
          <mxGeometry relative="1" as="geometry" />
        </mxCell>
        <mxCell id="aHR9_frTfQv7lHE0gGob-33" style="edgeStyle=orthogonalEdgeStyle;rounded=0;orthogonalLoop=1;jettySize=auto;html=1;dashed=1;strokeColor=default;align=center;verticalAlign=middle;fontFamily=Helvetica;fontSize=11;fontColor=default;labelBackgroundColor=default;endArrow=ERoneToMany;endFill=0;" edge="1" parent="1" source="aHR9_frTfQv7lHE0gGob-5" target="aHR9_frTfQv7lHE0gGob-22">
          <mxGeometry relative="1" as="geometry">
            <Array as="points">
              <mxPoint x="-680" y="222" />
              <mxPoint x="-997" y="222" />
              <mxPoint x="-997" y="137" />
            </Array>
          </mxGeometry>
        </mxCell>
        <mxCell id="aHR9_frTfQv7lHE0gGob-124" style="edgeStyle=orthogonalEdgeStyle;rounded=0;orthogonalLoop=1;jettySize=auto;html=1;dashed=1;strokeColor=default;align=center;verticalAlign=middle;fontFamily=Helvetica;fontSize=11;fontColor=default;labelBackgroundColor=default;endArrow=ERoneToMany;endFill=0;" edge="1" parent="1" source="aHR9_frTfQv7lHE0gGob-5" target="aHR9_frTfQv7lHE0gGob-114">
          <mxGeometry relative="1" as="geometry" />
        </mxCell>
        <mxCell id="aHR9_frTfQv7lHE0gGob-165" style="edgeStyle=orthogonalEdgeStyle;rounded=0;orthogonalLoop=1;jettySize=auto;html=1;dashed=1;strokeColor=default;align=center;verticalAlign=middle;fontFamily=Helvetica;fontSize=11;fontColor=default;labelBackgroundColor=default;endArrow=ERoneToMany;endFill=0;" edge="1" parent="1" source="aHR9_frTfQv7lHE0gGob-5" target="aHR9_frTfQv7lHE0gGob-142">
          <mxGeometry relative="1" as="geometry">
            <Array as="points">
              <mxPoint x="-619" y="-22" />
              <mxPoint x="-619" y="-244" />
              <mxPoint x="623" y="-244" />
              <mxPoint x="623" y="1730" />
            </Array>
          </mxGeometry>
        </mxCell>
        <mxCell id="aHR9_frTfQv7lHE0gGob-180" style="edgeStyle=orthogonalEdgeStyle;rounded=0;orthogonalLoop=1;jettySize=auto;html=1;dashed=1;strokeColor=default;align=center;verticalAlign=middle;fontFamily=Helvetica;fontSize=11;fontColor=default;labelBackgroundColor=default;endArrow=ERoneToMany;endFill=0;" edge="1" parent="1" source="aHR9_frTfQv7lHE0gGob-5" target="aHR9_frTfQv7lHE0gGob-56">
          <mxGeometry relative="1" as="geometry" />
        </mxCell>
        <mxCell id="aHR9_frTfQv7lHE0gGob-193" style="edgeStyle=orthogonalEdgeStyle;rounded=0;orthogonalLoop=1;jettySize=auto;html=1;dashed=1;strokeColor=default;align=center;verticalAlign=middle;fontFamily=Helvetica;fontSize=11;fontColor=default;labelBackgroundColor=default;endArrow=ERoneToMany;endFill=0;" edge="1" parent="1" source="aHR9_frTfQv7lHE0gGob-5" target="aHR9_frTfQv7lHE0gGob-130">
          <mxGeometry relative="1" as="geometry">
            <Array as="points">
              <mxPoint x="-489" y="356" />
              <mxPoint x="247" y="356" />
            </Array>
          </mxGeometry>
        </mxCell>
        <mxCell id="aHR9_frTfQv7lHE0gGob-5" value="Исполнитель" style="swimlane;fontStyle=0;childLayout=stackLayout;horizontal=1;startSize=26;horizontalStack=0;resizeParent=1;resizeParentMax=0;resizeLast=0;collapsible=1;marginBottom=0;align=center;fontSize=14;" vertex="1" parent="1">
          <mxGeometry x="-569" y="-80" width="160" height="116" as="geometry" />
        </mxCell>
        <mxCell id="aHR9_frTfQv7lHE0gGob-6" value="Наименование" style="text;strokeColor=none;fillColor=none;spacingLeft=4;spacingRight=4;overflow=hidden;rotatable=0;points=[[0,0.5],[1,0.5]];portConstraint=eastwest;fontSize=12;whiteSpace=wrap;html=1;" vertex="1" parent="aHR9_frTfQv7lHE0gGob-5">
          <mxGeometry y="26" width="160" height="30" as="geometry" />
        </mxCell>
        <mxCell id="aHR9_frTfQv7lHE0gGob-7" value="Краткое наименование" style="text;strokeColor=none;fillColor=none;spacingLeft=4;spacingRight=4;overflow=hidden;rotatable=0;points=[[0,0.5],[1,0.5]];portConstraint=eastwest;fontSize=12;whiteSpace=wrap;html=1;" vertex="1" parent="aHR9_frTfQv7lHE0gGob-5">
          <mxGeometry y="56" width="160" height="30" as="geometry" />
        </mxCell>
        <mxCell id="aHR9_frTfQv7lHE0gGob-8" value="Не участвует" style="text;strokeColor=none;fillColor=none;spacingLeft=4;spacingRight=4;overflow=hidden;rotatable=0;points=[[0,0.5],[1,0.5]];portConstraint=eastwest;fontSize=12;whiteSpace=wrap;html=1;" vertex="1" parent="aHR9_frTfQv7lHE0gGob-5">
          <mxGeometry y="86" width="160" height="30" as="geometry" />
        </mxCell>
        <mxCell id="aHR9_frTfQv7lHE0gGob-32" style="edgeStyle=orthogonalEdgeStyle;rounded=0;orthogonalLoop=1;jettySize=auto;html=1;dashed=1;endArrow=ERoneToMany;endFill=0;strokeColor=default;" edge="1" parent="1" source="aHR9_frTfQv7lHE0gGob-10" target="aHR9_frTfQv7lHE0gGob-22">
          <mxGeometry relative="1" as="geometry" />
        </mxCell>
        <mxCell id="aHR9_frTfQv7lHE0gGob-141" style="edgeStyle=orthogonalEdgeStyle;rounded=0;orthogonalLoop=1;jettySize=auto;html=1;entryX=0.5;entryY=0;entryDx=0;entryDy=0;dashed=1;strokeColor=default;align=center;verticalAlign=middle;fontFamily=Helvetica;fontSize=11;fontColor=default;labelBackgroundColor=default;endArrow=ERoneToMany;endFill=0;" edge="1" parent="1" source="aHR9_frTfQv7lHE0gGob-10" target="aHR9_frTfQv7lHE0gGob-35">
          <mxGeometry relative="1" as="geometry" />
        </mxCell>
        <mxCell id="aHR9_frTfQv7lHE0gGob-10" value="Вид производства" style="swimlane;fontStyle=0;childLayout=stackLayout;horizontal=1;startSize=26;horizontalStack=0;resizeParent=1;resizeParentMax=0;resizeLast=0;collapsible=1;marginBottom=0;align=center;fontSize=14;" vertex="1" parent="1">
          <mxGeometry x="-1282.5" y="209" width="160" height="56" as="geometry" />
        </mxCell>
        <mxCell id="aHR9_frTfQv7lHE0gGob-11" value="Наименование" style="text;strokeColor=none;fillColor=none;spacingLeft=4;spacingRight=4;overflow=hidden;rotatable=0;points=[[0,0.5],[1,0.5]];portConstraint=eastwest;fontSize=12;whiteSpace=wrap;html=1;" vertex="1" parent="aHR9_frTfQv7lHE0gGob-10">
          <mxGeometry y="26" width="160" height="30" as="geometry" />
        </mxCell>
        <mxCell id="aHR9_frTfQv7lHE0gGob-31" style="edgeStyle=orthogonalEdgeStyle;rounded=0;orthogonalLoop=1;jettySize=auto;html=1;dashed=1;endArrow=ERoneToMany;endFill=0;" edge="1" parent="1" source="aHR9_frTfQv7lHE0gGob-14" target="aHR9_frTfQv7lHE0gGob-22">
          <mxGeometry relative="1" as="geometry" />
        </mxCell>
        <mxCell id="aHR9_frTfQv7lHE0gGob-14" value="Расход" style="swimlane;fontStyle=0;childLayout=stackLayout;horizontal=1;startSize=26;horizontalStack=0;resizeParent=1;resizeParentMax=0;resizeLast=0;collapsible=1;marginBottom=0;align=center;fontSize=14;" vertex="1" parent="1">
          <mxGeometry x="-1517" y="109" width="160" height="56" as="geometry" />
        </mxCell>
        <mxCell id="aHR9_frTfQv7lHE0gGob-17" value="Наименование" style="text;strokeColor=none;fillColor=none;spacingLeft=4;spacingRight=4;overflow=hidden;rotatable=0;points=[[0,0.5],[1,0.5]];portConstraint=eastwest;fontSize=12;whiteSpace=wrap;html=1;" vertex="1" parent="aHR9_frTfQv7lHE0gGob-14">
          <mxGeometry y="26" width="160" height="30" as="geometry" />
        </mxCell>
        <mxCell id="aHR9_frTfQv7lHE0gGob-27" style="edgeStyle=orthogonalEdgeStyle;rounded=0;orthogonalLoop=1;jettySize=auto;html=1;dashed=1;endArrow=ERoneToMany;endFill=0;" edge="1" parent="1" source="aHR9_frTfQv7lHE0gGob-18" target="aHR9_frTfQv7lHE0gGob-22">
          <mxGeometry relative="1" as="geometry">
            <Array as="points">
              <mxPoint x="-1109" y="131" />
              <mxPoint x="-1109" y="131" />
            </Array>
          </mxGeometry>
        </mxCell>
        <mxCell id="aHR9_frTfQv7lHE0gGob-18" value="Период процента накладных расходов" style="swimlane;fontStyle=0;childLayout=stackLayout;horizontal=1;startSize=26;horizontalStack=0;resizeParent=1;resizeParentMax=0;resizeLast=0;collapsible=1;marginBottom=0;align=center;fontSize=14;" vertex="1" parent="1">
          <mxGeometry x="-1344" y="-30" width="277" height="86" as="geometry" />
        </mxCell>
        <mxCell id="aHR9_frTfQv7lHE0gGob-19" value="Дата начала" style="text;strokeColor=none;fillColor=none;spacingLeft=4;spacingRight=4;overflow=hidden;rotatable=0;points=[[0,0.5],[1,0.5]];portConstraint=eastwest;fontSize=12;whiteSpace=wrap;html=1;" vertex="1" parent="aHR9_frTfQv7lHE0gGob-18">
          <mxGeometry y="26" width="277" height="30" as="geometry" />
        </mxCell>
        <mxCell id="aHR9_frTfQv7lHE0gGob-20" value="Дата окончания" style="text;strokeColor=none;fillColor=none;spacingLeft=4;spacingRight=4;overflow=hidden;rotatable=0;points=[[0,0.5],[1,0.5]];portConstraint=eastwest;fontSize=12;whiteSpace=wrap;html=1;" vertex="1" parent="aHR9_frTfQv7lHE0gGob-18">
          <mxGeometry y="56" width="277" height="30" as="geometry" />
        </mxCell>
        <mxCell id="aHR9_frTfQv7lHE0gGob-22" value="Процент накладных расходов" style="swimlane;fontStyle=0;childLayout=stackLayout;horizontal=1;startSize=26;horizontalStack=0;resizeParent=1;resizeParentMax=0;resizeLast=0;collapsible=1;marginBottom=0;align=center;fontSize=14;" vertex="1" parent="1">
          <mxGeometry x="-1305" y="109" width="205" height="56" as="geometry" />
        </mxCell>
        <mxCell id="aHR9_frTfQv7lHE0gGob-23" value="Значение" style="text;strokeColor=none;fillColor=none;spacingLeft=4;spacingRight=4;overflow=hidden;rotatable=0;points=[[0,0.5],[1,0.5]];portConstraint=eastwest;fontSize=12;whiteSpace=wrap;html=1;" vertex="1" parent="aHR9_frTfQv7lHE0gGob-22">
          <mxGeometry y="26" width="205" height="30" as="geometry" />
        </mxCell>
        <mxCell id="aHR9_frTfQv7lHE0gGob-35" value="Шифр" style="swimlane;fontStyle=0;childLayout=stackLayout;horizontal=1;startSize=26;horizontalStack=0;resizeParent=1;resizeParentMax=0;resizeLast=0;collapsible=1;marginBottom=0;align=center;fontSize=14;fontFamily=Helvetica;fontColor=default;labelBackgroundColor=default;" vertex="1" parent="1">
          <mxGeometry x="-1282.5" y="315" width="160" height="86" as="geometry" />
        </mxCell>
        <mxCell id="aHR9_frTfQv7lHE0gGob-39" value="Наименование" style="text;strokeColor=none;fillColor=none;spacingLeft=4;spacingRight=4;overflow=hidden;rotatable=0;points=[[0,0.5],[1,0.5]];portConstraint=eastwest;fontSize=11;whiteSpace=wrap;html=1;fontFamily=Helvetica;fontColor=default;labelBackgroundColor=default;" vertex="1" parent="aHR9_frTfQv7lHE0gGob-35">
          <mxGeometry y="26" width="160" height="30" as="geometry" />
        </mxCell>
        <mxCell id="aHR9_frTfQv7lHE0gGob-40" value="Номер" style="text;strokeColor=none;fillColor=none;spacingLeft=4;spacingRight=4;overflow=hidden;rotatable=0;points=[[0,0.5],[1,0.5]];portConstraint=eastwest;fontSize=11;whiteSpace=wrap;html=1;fontFamily=Helvetica;fontColor=default;labelBackgroundColor=default;" vertex="1" parent="aHR9_frTfQv7lHE0gGob-35">
          <mxGeometry y="56" width="160" height="30" as="geometry" />
        </mxCell>
        <mxCell id="aHR9_frTfQv7lHE0gGob-54" style="edgeStyle=orthogonalEdgeStyle;rounded=0;orthogonalLoop=1;jettySize=auto;html=1;dashed=1;strokeColor=default;align=center;verticalAlign=middle;fontFamily=Helvetica;fontSize=11;fontColor=default;labelBackgroundColor=default;endArrow=ERoneToMany;endFill=0;" edge="1" parent="1" source="aHR9_frTfQv7lHE0gGob-46" target="aHR9_frTfQv7lHE0gGob-50">
          <mxGeometry relative="1" as="geometry" />
        </mxCell>
        <mxCell id="aHR9_frTfQv7lHE0gGob-46" value="Сегмент движения денежных средств" style="swimlane;fontStyle=0;childLayout=stackLayout;horizontal=1;startSize=26;horizontalStack=0;resizeParent=1;resizeParentMax=0;resizeLast=0;collapsible=1;marginBottom=0;align=center;fontSize=14;fontFamily=Helvetica;fontColor=default;labelBackgroundColor=default;" vertex="1" parent="1">
          <mxGeometry x="-1828" y="837" width="263" height="116" as="geometry" />
        </mxCell>
        <mxCell id="aHR9_frTfQv7lHE0gGob-47" value="Наименование" style="text;strokeColor=none;fillColor=none;spacingLeft=4;spacingRight=4;overflow=hidden;rotatable=0;points=[[0,0.5],[1,0.5]];portConstraint=eastwest;fontSize=11;whiteSpace=wrap;html=1;fontFamily=Helvetica;fontColor=default;labelBackgroundColor=default;" vertex="1" parent="aHR9_frTfQv7lHE0gGob-46">
          <mxGeometry y="26" width="263" height="30" as="geometry" />
        </mxCell>
        <mxCell id="aHR9_frTfQv7lHE0gGob-48" value="Код" style="text;strokeColor=none;fillColor=none;spacingLeft=4;spacingRight=4;overflow=hidden;rotatable=0;points=[[0,0.5],[1,0.5]];portConstraint=eastwest;fontSize=11;whiteSpace=wrap;html=1;fontFamily=Helvetica;fontColor=default;labelBackgroundColor=default;" vertex="1" parent="aHR9_frTfQv7lHE0gGob-46">
          <mxGeometry y="56" width="263" height="30" as="geometry" />
        </mxCell>
        <mxCell id="aHR9_frTfQv7lHE0gGob-49" value="Короткий код" style="text;strokeColor=none;fillColor=none;spacingLeft=4;spacingRight=4;overflow=hidden;rotatable=0;points=[[0,0.5],[1,0.5]];portConstraint=eastwest;fontSize=11;whiteSpace=wrap;html=1;fontFamily=Helvetica;fontColor=default;labelBackgroundColor=default;" vertex="1" parent="aHR9_frTfQv7lHE0gGob-46">
          <mxGeometry y="86" width="263" height="30" as="geometry" />
        </mxCell>
        <mxCell id="aHR9_frTfQv7lHE0gGob-50" value="Раздел движения денежных средств" style="swimlane;fontStyle=0;childLayout=stackLayout;horizontal=1;startSize=26;horizontalStack=0;resizeParent=1;resizeParentMax=0;resizeLast=0;collapsible=1;marginBottom=0;align=center;fontSize=14;fontFamily=Helvetica;fontColor=default;labelBackgroundColor=default;" vertex="1" parent="1">
          <mxGeometry x="-1497" y="837" width="268" height="116" as="geometry" />
        </mxCell>
        <mxCell id="aHR9_frTfQv7lHE0gGob-51" value="Наименование" style="text;strokeColor=none;fillColor=none;spacingLeft=4;spacingRight=4;overflow=hidden;rotatable=0;points=[[0,0.5],[1,0.5]];portConstraint=eastwest;fontSize=11;whiteSpace=wrap;html=1;fontFamily=Helvetica;fontColor=default;labelBackgroundColor=default;" vertex="1" parent="aHR9_frTfQv7lHE0gGob-50">
          <mxGeometry y="26" width="268" height="30" as="geometry" />
        </mxCell>
        <mxCell id="aHR9_frTfQv7lHE0gGob-52" value="Код" style="text;strokeColor=none;fillColor=none;spacingLeft=4;spacingRight=4;overflow=hidden;rotatable=0;points=[[0,0.5],[1,0.5]];portConstraint=eastwest;fontSize=11;whiteSpace=wrap;html=1;fontFamily=Helvetica;fontColor=default;labelBackgroundColor=default;" vertex="1" parent="aHR9_frTfQv7lHE0gGob-50">
          <mxGeometry y="56" width="268" height="30" as="geometry" />
        </mxCell>
        <mxCell id="aHR9_frTfQv7lHE0gGob-53" value="Короткий код" style="text;strokeColor=none;fillColor=none;spacingLeft=4;spacingRight=4;overflow=hidden;rotatable=0;points=[[0,0.5],[1,0.5]];portConstraint=eastwest;fontSize=11;whiteSpace=wrap;html=1;fontFamily=Helvetica;fontColor=default;labelBackgroundColor=default;" vertex="1" parent="aHR9_frTfQv7lHE0gGob-50">
          <mxGeometry y="86" width="268" height="30" as="geometry" />
        </mxCell>
        <mxCell id="aHR9_frTfQv7lHE0gGob-74" style="edgeStyle=orthogonalEdgeStyle;rounded=0;orthogonalLoop=1;jettySize=auto;html=1;dashed=1;strokeColor=default;align=center;verticalAlign=middle;fontFamily=Helvetica;fontSize=11;fontColor=default;labelBackgroundColor=default;endArrow=ERoneToMany;endFill=0;" edge="1" parent="1" source="aHR9_frTfQv7lHE0gGob-56" target="aHR9_frTfQv7lHE0gGob-61">
          <mxGeometry relative="1" as="geometry">
            <Array as="points">
              <mxPoint x="-105" y="-8" />
              <mxPoint x="-105" y="-8" />
            </Array>
          </mxGeometry>
        </mxCell>
        <mxCell id="aHR9_frTfQv7lHE0gGob-56" value="Подразделение" style="swimlane;fontStyle=0;childLayout=stackLayout;horizontal=1;startSize=26;horizontalStack=0;resizeParent=1;resizeParentMax=0;resizeLast=0;collapsible=1;marginBottom=0;align=center;fontSize=14;fontFamily=Helvetica;fontColor=default;labelBackgroundColor=default;" vertex="1" parent="1">
          <mxGeometry x="-357" y="-95" width="160" height="146" as="geometry" />
        </mxCell>
        <mxCell id="aHR9_frTfQv7lHE0gGob-57" value="Краткое наименование" style="text;strokeColor=none;fillColor=none;spacingLeft=4;spacingRight=4;overflow=hidden;rotatable=0;points=[[0,0.5],[1,0.5]];portConstraint=eastwest;fontSize=11;whiteSpace=wrap;html=1;fontFamily=Helvetica;fontColor=default;labelBackgroundColor=default;" vertex="1" parent="aHR9_frTfQv7lHE0gGob-56">
          <mxGeometry y="26" width="160" height="30" as="geometry" />
        </mxCell>
        <mxCell id="aHR9_frTfQv7lHE0gGob-58" value="Полное наименование" style="text;strokeColor=none;fillColor=none;spacingLeft=4;spacingRight=4;overflow=hidden;rotatable=0;points=[[0,0.5],[1,0.5]];portConstraint=eastwest;fontSize=11;whiteSpace=wrap;html=1;fontFamily=Helvetica;fontColor=default;labelBackgroundColor=default;" vertex="1" parent="aHR9_frTfQv7lHE0gGob-56">
          <mxGeometry y="56" width="160" height="30" as="geometry" />
        </mxCell>
        <mxCell id="aHR9_frTfQv7lHE0gGob-59" value="Имеет расположение" style="text;strokeColor=none;fillColor=none;spacingLeft=4;spacingRight=4;overflow=hidden;rotatable=0;points=[[0,0.5],[1,0.5]];portConstraint=eastwest;fontSize=11;whiteSpace=wrap;html=1;fontFamily=Helvetica;fontColor=default;labelBackgroundColor=default;" vertex="1" parent="aHR9_frTfQv7lHE0gGob-56">
          <mxGeometry y="86" width="160" height="30" as="geometry" />
        </mxCell>
        <mxCell id="aHR9_frTfQv7lHE0gGob-60" value="Тип подразделения" style="text;strokeColor=none;fillColor=none;spacingLeft=4;spacingRight=4;overflow=hidden;rotatable=0;points=[[0,0.5],[1,0.5]];portConstraint=eastwest;fontSize=11;whiteSpace=wrap;html=1;fontFamily=Helvetica;fontColor=default;labelBackgroundColor=default;" vertex="1" parent="aHR9_frTfQv7lHE0gGob-56">
          <mxGeometry y="116" width="160" height="30" as="geometry" />
        </mxCell>
        <mxCell id="aHR9_frTfQv7lHE0gGob-170" style="edgeStyle=orthogonalEdgeStyle;rounded=0;orthogonalLoop=1;jettySize=auto;html=1;dashed=1;strokeColor=default;align=center;verticalAlign=middle;fontFamily=Helvetica;fontSize=11;fontColor=default;labelBackgroundColor=default;endArrow=ERoneToMany;endFill=0;" edge="1" parent="1" source="aHR9_frTfQv7lHE0gGob-61" target="F5EBHadNRmTIwF_CADEw-18">
          <mxGeometry relative="1" as="geometry">
            <Array as="points">
              <mxPoint x="308" y="204" />
              <mxPoint x="308" y="765" />
            </Array>
          </mxGeometry>
        </mxCell>
        <mxCell id="aHR9_frTfQv7lHE0gGob-171" style="edgeStyle=orthogonalEdgeStyle;rounded=0;orthogonalLoop=1;jettySize=auto;html=1;dashed=1;strokeColor=default;align=center;verticalAlign=middle;fontFamily=Helvetica;fontSize=11;fontColor=default;labelBackgroundColor=default;endArrow=ERoneToMany;endFill=0;" edge="1" parent="1" source="aHR9_frTfQv7lHE0gGob-61" target="F5EBHadNRmTIwF_CADEw-18">
          <mxGeometry relative="1" as="geometry">
            <Array as="points">
              <mxPoint x="518" y="6" />
              <mxPoint x="518" y="797" />
            </Array>
          </mxGeometry>
        </mxCell>
        <mxCell id="aHR9_frTfQv7lHE0gGob-61" value="Пользователь" style="swimlane;fontStyle=0;childLayout=stackLayout;horizontal=1;startSize=26;horizontalStack=0;resizeParent=1;resizeParentMax=0;resizeLast=0;collapsible=1;marginBottom=0;align=center;fontSize=14;fontFamily=Helvetica;fontColor=default;labelBackgroundColor=default;" vertex="1" parent="1">
          <mxGeometry x="-120" y="-194" width="160" height="400" as="geometry" />
        </mxCell>
        <mxCell id="aHR9_frTfQv7lHE0gGob-62" value="Табельный номер" style="text;strokeColor=none;fillColor=none;spacingLeft=4;spacingRight=4;overflow=hidden;rotatable=0;points=[[0,0.5],[1,0.5]];portConstraint=eastwest;fontSize=11;whiteSpace=wrap;html=1;fontFamily=Helvetica;fontColor=default;labelBackgroundColor=default;" vertex="1" parent="aHR9_frTfQv7lHE0gGob-61">
          <mxGeometry y="26" width="160" height="30" as="geometry" />
        </mxCell>
        <mxCell id="aHR9_frTfQv7lHE0gGob-63" value="Отчество" style="text;strokeColor=none;fillColor=none;spacingLeft=4;spacingRight=4;overflow=hidden;rotatable=0;points=[[0,0.5],[1,0.5]];portConstraint=eastwest;fontSize=11;whiteSpace=wrap;html=1;fontFamily=Helvetica;fontColor=default;labelBackgroundColor=default;" vertex="1" parent="aHR9_frTfQv7lHE0gGob-61">
          <mxGeometry y="56" width="160" height="30" as="geometry" />
        </mxCell>
        <mxCell id="aHR9_frTfQv7lHE0gGob-64" value="Фамилия" style="text;strokeColor=none;fillColor=none;spacingLeft=4;spacingRight=4;overflow=hidden;rotatable=0;points=[[0,0.5],[1,0.5]];portConstraint=eastwest;fontSize=11;whiteSpace=wrap;html=1;fontFamily=Helvetica;fontColor=default;labelBackgroundColor=default;" vertex="1" parent="aHR9_frTfQv7lHE0gGob-61">
          <mxGeometry y="86" width="160" height="30" as="geometry" />
        </mxCell>
        <mxCell id="aHR9_frTfQv7lHE0gGob-65" value="Имя" style="text;strokeColor=none;fillColor=none;spacingLeft=4;spacingRight=4;overflow=hidden;rotatable=0;points=[[0,0.5],[1,0.5]];portConstraint=eastwest;fontSize=11;whiteSpace=wrap;html=1;fontFamily=Helvetica;fontColor=default;labelBackgroundColor=default;" vertex="1" parent="aHR9_frTfQv7lHE0gGob-61">
          <mxGeometry y="116" width="160" height="30" as="geometry" />
        </mxCell>
        <mxCell id="aHR9_frTfQv7lHE0gGob-66" value="Наименование должности" style="text;strokeColor=none;fillColor=none;spacingLeft=4;spacingRight=4;overflow=hidden;rotatable=0;points=[[0,0.5],[1,0.5]];portConstraint=eastwest;fontSize=11;whiteSpace=wrap;html=1;fontFamily=Helvetica;fontColor=default;labelBackgroundColor=default;" vertex="1" parent="aHR9_frTfQv7lHE0gGob-61">
          <mxGeometry y="146" width="160" height="30" as="geometry" />
        </mxCell>
        <mxCell id="aHR9_frTfQv7lHE0gGob-67" value="Полное имя" style="text;strokeColor=none;fillColor=none;spacingLeft=4;spacingRight=4;overflow=hidden;rotatable=0;points=[[0,0.5],[1,0.5]];portConstraint=eastwest;fontSize=11;whiteSpace=wrap;html=1;fontFamily=Helvetica;fontColor=default;labelBackgroundColor=default;" vertex="1" parent="aHR9_frTfQv7lHE0gGob-61">
          <mxGeometry y="176" width="160" height="30" as="geometry" />
        </mxCell>
        <mxCell id="aHR9_frTfQv7lHE0gGob-68" value="Полное имя с инициалами" style="text;strokeColor=none;fillColor=none;spacingLeft=4;spacingRight=4;overflow=hidden;rotatable=0;points=[[0,0.5],[1,0.5]];portConstraint=eastwest;fontSize=11;whiteSpace=wrap;html=1;fontFamily=Helvetica;fontColor=default;labelBackgroundColor=default;" vertex="1" parent="aHR9_frTfQv7lHE0gGob-61">
          <mxGeometry y="206" width="160" height="30" as="geometry" />
        </mxCell>
        <mxCell id="aHR9_frTfQv7lHE0gGob-69" value="Перевёрнутое полное имя с инициалами" style="text;strokeColor=none;fillColor=none;spacingLeft=4;spacingRight=4;overflow=hidden;rotatable=0;points=[[0,0.5],[1,0.5]];portConstraint=eastwest;fontSize=11;whiteSpace=wrap;html=1;fontFamily=Helvetica;fontColor=default;labelBackgroundColor=default;" vertex="1" parent="aHR9_frTfQv7lHE0gGob-61">
          <mxGeometry y="236" width="160" height="44" as="geometry" />
        </mxCell>
        <mxCell id="aHR9_frTfQv7lHE0gGob-70" value="Руководитель" style="text;strokeColor=none;fillColor=none;spacingLeft=4;spacingRight=4;overflow=hidden;rotatable=0;points=[[0,0.5],[1,0.5]];portConstraint=eastwest;fontSize=11;whiteSpace=wrap;html=1;fontFamily=Helvetica;fontColor=default;labelBackgroundColor=default;" vertex="1" parent="aHR9_frTfQv7lHE0gGob-61">
          <mxGeometry y="280" width="160" height="30" as="geometry" />
        </mxCell>
        <mxCell id="aHR9_frTfQv7lHE0gGob-71" value="Номер телефона" style="text;strokeColor=none;fillColor=none;spacingLeft=4;spacingRight=4;overflow=hidden;rotatable=0;points=[[0,0.5],[1,0.5]];portConstraint=eastwest;fontSize=11;whiteSpace=wrap;html=1;fontFamily=Helvetica;fontColor=default;labelBackgroundColor=default;" vertex="1" parent="aHR9_frTfQv7lHE0gGob-61">
          <mxGeometry y="310" width="160" height="30" as="geometry" />
        </mxCell>
        <mxCell id="aHR9_frTfQv7lHE0gGob-72" value="Логин" style="text;strokeColor=none;fillColor=none;spacingLeft=4;spacingRight=4;overflow=hidden;rotatable=0;points=[[0,0.5],[1,0.5]];portConstraint=eastwest;fontSize=11;whiteSpace=wrap;html=1;fontFamily=Helvetica;fontColor=default;labelBackgroundColor=default;" vertex="1" parent="aHR9_frTfQv7lHE0gGob-61">
          <mxGeometry y="340" width="160" height="30" as="geometry" />
        </mxCell>
        <mxCell id="aHR9_frTfQv7lHE0gGob-73" value="Уволен" style="text;strokeColor=none;fillColor=none;spacingLeft=4;spacingRight=4;overflow=hidden;rotatable=0;points=[[0,0.5],[1,0.5]];portConstraint=eastwest;fontSize=11;whiteSpace=wrap;html=1;fontFamily=Helvetica;fontColor=default;labelBackgroundColor=default;" vertex="1" parent="aHR9_frTfQv7lHE0gGob-61">
          <mxGeometry y="370" width="160" height="30" as="geometry" />
        </mxCell>
        <mxCell id="aHR9_frTfQv7lHE0gGob-79" value="Трудоёмкость" style="swimlane;fontStyle=0;childLayout=stackLayout;horizontal=1;startSize=26;horizontalStack=0;resizeParent=1;resizeParentMax=0;resizeLast=0;collapsible=1;marginBottom=0;align=center;fontSize=14;fontFamily=Helvetica;fontColor=default;labelBackgroundColor=default;" vertex="1" parent="1">
          <mxGeometry x="-1105" y="1617" width="160" height="261" as="geometry" />
        </mxCell>
        <mxCell id="aHR9_frTfQv7lHE0gGob-83" value="Значение" style="text;strokeColor=none;fillColor=none;spacingLeft=4;spacingRight=4;overflow=hidden;rotatable=0;points=[[0,0.5],[1,0.5]];portConstraint=eastwest;fontSize=11;whiteSpace=wrap;html=1;fontFamily=Helvetica;fontColor=default;labelBackgroundColor=default;" vertex="1" parent="aHR9_frTfQv7lHE0gGob-79">
          <mxGeometry y="26" width="160" height="30" as="geometry" />
        </mxCell>
        <mxCell id="aHR9_frTfQv7lHE0gGob-89" value="Значение аутстаффинга" style="text;strokeColor=none;fillColor=none;spacingLeft=4;spacingRight=4;overflow=hidden;rotatable=0;points=[[0,0.5],[1,0.5]];portConstraint=eastwest;fontSize=11;whiteSpace=wrap;html=1;fontFamily=Helvetica;fontColor=default;labelBackgroundColor=default;" vertex="1" parent="aHR9_frTfQv7lHE0gGob-79">
          <mxGeometry y="56" width="160" height="30" as="geometry" />
        </mxCell>
        <mxCell id="aHR9_frTfQv7lHE0gGob-84" value="Месяц" style="text;strokeColor=none;fillColor=none;spacingLeft=4;spacingRight=4;overflow=hidden;rotatable=0;points=[[0,0.5],[1,0.5]];portConstraint=eastwest;fontSize=11;whiteSpace=wrap;html=1;fontFamily=Helvetica;fontColor=default;labelBackgroundColor=default;" vertex="1" parent="aHR9_frTfQv7lHE0gGob-79">
          <mxGeometry y="86" width="160" height="30" as="geometry" />
        </mxCell>
        <mxCell id="aHR9_frTfQv7lHE0gGob-85" value="Дата создания" style="text;strokeColor=none;fillColor=none;spacingLeft=4;spacingRight=4;overflow=hidden;rotatable=0;points=[[0,0.5],[1,0.5]];portConstraint=eastwest;fontSize=11;whiteSpace=wrap;html=1;fontFamily=Helvetica;fontColor=default;labelBackgroundColor=default;" vertex="1" parent="aHR9_frTfQv7lHE0gGob-79">
          <mxGeometry y="116" width="160" height="30" as="geometry" />
        </mxCell>
        <mxCell id="aHR9_frTfQv7lHE0gGob-86" value="Имя создателя" style="text;strokeColor=none;fillColor=none;spacingLeft=4;spacingRight=4;overflow=hidden;rotatable=0;points=[[0,0.5],[1,0.5]];portConstraint=eastwest;fontSize=11;whiteSpace=wrap;html=1;fontFamily=Helvetica;fontColor=default;labelBackgroundColor=default;" vertex="1" parent="aHR9_frTfQv7lHE0gGob-79">
          <mxGeometry y="146" width="160" height="30" as="geometry" />
        </mxCell>
        <mxCell id="aHR9_frTfQv7lHE0gGob-87" value="Дата последнего изменения" style="text;strokeColor=none;fillColor=none;spacingLeft=4;spacingRight=4;overflow=hidden;rotatable=0;points=[[0,0.5],[1,0.5]];portConstraint=eastwest;fontSize=11;whiteSpace=wrap;html=1;fontFamily=Helvetica;fontColor=default;labelBackgroundColor=default;" vertex="1" parent="aHR9_frTfQv7lHE0gGob-79">
          <mxGeometry y="176" width="160" height="30" as="geometry" />
        </mxCell>
        <mxCell id="aHR9_frTfQv7lHE0gGob-88" value="Имя пользователя, внёсшего последнее изменение" style="text;strokeColor=none;fillColor=none;spacingLeft=4;spacingRight=4;overflow=hidden;rotatable=0;points=[[0,0.5],[1,0.5]];portConstraint=eastwest;fontSize=11;whiteSpace=wrap;html=1;fontFamily=Helvetica;fontColor=default;labelBackgroundColor=default;" vertex="1" parent="aHR9_frTfQv7lHE0gGob-79">
          <mxGeometry y="206" width="160" height="55" as="geometry" />
        </mxCell>
        <mxCell id="aHR9_frTfQv7lHE0gGob-98" style="edgeStyle=orthogonalEdgeStyle;rounded=0;orthogonalLoop=1;jettySize=auto;html=1;dashed=1;strokeColor=default;align=center;verticalAlign=middle;fontFamily=Helvetica;fontSize=11;fontColor=default;labelBackgroundColor=default;endArrow=ERoneToMany;endFill=0;" edge="1" parent="1" source="aHR9_frTfQv7lHE0gGob-90" target="aHR9_frTfQv7lHE0gGob-79">
          <mxGeometry relative="1" as="geometry" />
        </mxCell>
        <mxCell id="aHR9_frTfQv7lHE0gGob-90" value="Период трудоёмкости" style="swimlane;fontStyle=0;childLayout=stackLayout;horizontal=1;startSize=26;horizontalStack=0;resizeParent=1;resizeParentMax=0;resizeLast=0;collapsible=1;marginBottom=0;align=center;fontSize=14;fontFamily=Helvetica;fontColor=default;labelBackgroundColor=default;" vertex="1" parent="1">
          <mxGeometry x="-1105" y="1260" width="160" height="234" as="geometry" />
        </mxCell>
        <mxCell id="aHR9_frTfQv7lHE0gGob-91" value="Скрыт" style="text;strokeColor=none;fillColor=none;spacingLeft=4;spacingRight=4;overflow=hidden;rotatable=0;points=[[0,0.5],[1,0.5]];portConstraint=eastwest;fontSize=11;whiteSpace=wrap;html=1;fontFamily=Helvetica;fontColor=default;labelBackgroundColor=default;" vertex="1" parent="aHR9_frTfQv7lHE0gGob-90">
          <mxGeometry y="26" width="160" height="30" as="geometry" />
        </mxCell>
        <mxCell id="aHR9_frTfQv7lHE0gGob-92" value="Заблокирован" style="text;strokeColor=none;fillColor=none;spacingLeft=4;spacingRight=4;overflow=hidden;rotatable=0;points=[[0,0.5],[1,0.5]];portConstraint=eastwest;fontSize=11;whiteSpace=wrap;html=1;fontFamily=Helvetica;fontColor=default;labelBackgroundColor=default;" vertex="1" parent="aHR9_frTfQv7lHE0gGob-90">
          <mxGeometry y="56" width="160" height="30" as="geometry" />
        </mxCell>
        <mxCell id="aHR9_frTfQv7lHE0gGob-95" value="Имя создателя" style="text;strokeColor=none;fillColor=none;spacingLeft=4;spacingRight=4;overflow=hidden;rotatable=0;points=[[0,0.5],[1,0.5]];portConstraint=eastwest;fontSize=11;whiteSpace=wrap;html=1;fontFamily=Helvetica;fontColor=default;labelBackgroundColor=default;" vertex="1" parent="aHR9_frTfQv7lHE0gGob-90">
          <mxGeometry y="86" width="160" height="30" as="geometry" />
        </mxCell>
        <mxCell id="aHR9_frTfQv7lHE0gGob-94" value="Дата создания" style="text;strokeColor=none;fillColor=none;spacingLeft=4;spacingRight=4;overflow=hidden;rotatable=0;points=[[0,0.5],[1,0.5]];portConstraint=eastwest;fontSize=11;whiteSpace=wrap;html=1;fontFamily=Helvetica;fontColor=default;labelBackgroundColor=default;" vertex="1" parent="aHR9_frTfQv7lHE0gGob-90">
          <mxGeometry y="116" width="160" height="30" as="geometry" />
        </mxCell>
        <mxCell id="aHR9_frTfQv7lHE0gGob-96" value="Дата последнего изменения" style="text;strokeColor=none;fillColor=none;spacingLeft=4;spacingRight=4;overflow=hidden;rotatable=0;points=[[0,0.5],[1,0.5]];portConstraint=eastwest;fontSize=11;whiteSpace=wrap;html=1;fontFamily=Helvetica;fontColor=default;labelBackgroundColor=default;" vertex="1" parent="aHR9_frTfQv7lHE0gGob-90">
          <mxGeometry y="146" width="160" height="30" as="geometry" />
        </mxCell>
        <mxCell id="aHR9_frTfQv7lHE0gGob-97" value="Имя пользователя, внёсшего последнее изменение" style="text;strokeColor=none;fillColor=none;spacingLeft=4;spacingRight=4;overflow=hidden;rotatable=0;points=[[0,0.5],[1,0.5]];portConstraint=eastwest;fontSize=11;whiteSpace=wrap;html=1;fontFamily=Helvetica;fontColor=default;labelBackgroundColor=default;" vertex="1" parent="aHR9_frTfQv7lHE0gGob-90">
          <mxGeometry y="176" width="160" height="58" as="geometry" />
        </mxCell>
        <mxCell id="aHR9_frTfQv7lHE0gGob-111" style="edgeStyle=orthogonalEdgeStyle;rounded=0;orthogonalLoop=1;jettySize=auto;html=1;dashed=1;strokeColor=default;align=center;verticalAlign=middle;fontFamily=Helvetica;fontSize=11;fontColor=default;labelBackgroundColor=default;endArrow=ERoneToMany;endFill=0;" edge="1" parent="1" source="aHR9_frTfQv7lHE0gGob-102" target="aHR9_frTfQv7lHE0gGob-106">
          <mxGeometry relative="1" as="geometry" />
        </mxCell>
        <mxCell id="aHR9_frTfQv7lHE0gGob-102" value="Период стоимости часа" style="swimlane;fontStyle=0;childLayout=stackLayout;horizontal=1;startSize=26;horizontalStack=0;resizeParent=1;resizeParentMax=0;resizeLast=0;collapsible=1;marginBottom=0;align=center;fontSize=14;fontFamily=Helvetica;fontColor=default;labelBackgroundColor=default;" vertex="1" parent="1">
          <mxGeometry x="-572.5" y="1522" width="215" height="86" as="geometry" />
        </mxCell>
        <mxCell id="aHR9_frTfQv7lHE0gGob-104" value="Дата начала" style="text;strokeColor=none;fillColor=none;spacingLeft=4;spacingRight=4;overflow=hidden;rotatable=0;points=[[0,0.5],[1,0.5]];portConstraint=eastwest;fontSize=11;whiteSpace=wrap;html=1;fontFamily=Helvetica;fontColor=default;labelBackgroundColor=default;" vertex="1" parent="aHR9_frTfQv7lHE0gGob-102">
          <mxGeometry y="26" width="215" height="30" as="geometry" />
        </mxCell>
        <mxCell id="aHR9_frTfQv7lHE0gGob-105" value="Скрыт" style="text;strokeColor=none;fillColor=none;spacingLeft=4;spacingRight=4;overflow=hidden;rotatable=0;points=[[0,0.5],[1,0.5]];portConstraint=eastwest;fontSize=11;whiteSpace=wrap;html=1;fontFamily=Helvetica;fontColor=default;labelBackgroundColor=default;" vertex="1" parent="aHR9_frTfQv7lHE0gGob-102">
          <mxGeometry y="56" width="215" height="30" as="geometry" />
        </mxCell>
        <mxCell id="aHR9_frTfQv7lHE0gGob-106" value="Стоимость часа" style="swimlane;fontStyle=0;childLayout=stackLayout;horizontal=1;startSize=26;horizontalStack=0;resizeParent=1;resizeParentMax=0;resizeLast=0;collapsible=1;marginBottom=0;align=center;fontSize=14;fontFamily=Helvetica;fontColor=default;labelBackgroundColor=default;" vertex="1" parent="1">
          <mxGeometry x="-545" y="1723" width="160" height="56" as="geometry" />
        </mxCell>
        <mxCell id="aHR9_frTfQv7lHE0gGob-107" value="Значение" style="text;strokeColor=none;fillColor=none;spacingLeft=4;spacingRight=4;overflow=hidden;rotatable=0;points=[[0,0.5],[1,0.5]];portConstraint=eastwest;fontSize=11;whiteSpace=wrap;html=1;fontFamily=Helvetica;fontColor=default;labelBackgroundColor=default;" vertex="1" parent="aHR9_frTfQv7lHE0gGob-106">
          <mxGeometry y="26" width="160" height="30" as="geometry" />
        </mxCell>
        <mxCell id="aHR9_frTfQv7lHE0gGob-114" value="Профессии исполнителя" style="swimlane;fontStyle=0;childLayout=stackLayout;horizontal=1;startSize=26;horizontalStack=0;resizeParent=1;resizeParentMax=0;resizeLast=0;collapsible=1;marginBottom=0;align=center;fontSize=14;fontFamily=Helvetica;fontColor=default;labelBackgroundColor=default;" vertex="1" parent="1">
          <mxGeometry x="-957" y="110" width="208" height="56" as="geometry" />
        </mxCell>
        <mxCell id="aHR9_frTfQv7lHE0gGob-115" value="Количество" style="text;strokeColor=none;fillColor=none;spacingLeft=4;spacingRight=4;overflow=hidden;rotatable=0;points=[[0,0.5],[1,0.5]];portConstraint=eastwest;fontSize=11;whiteSpace=wrap;html=1;fontFamily=Helvetica;fontColor=default;labelBackgroundColor=default;" vertex="1" parent="aHR9_frTfQv7lHE0gGob-114">
          <mxGeometry y="26" width="208" height="30" as="geometry" />
        </mxCell>
        <mxCell id="aHR9_frTfQv7lHE0gGob-122" style="edgeStyle=orthogonalEdgeStyle;rounded=0;orthogonalLoop=1;jettySize=auto;html=1;dashed=1;strokeColor=default;align=center;verticalAlign=middle;fontFamily=Helvetica;fontSize=11;fontColor=default;labelBackgroundColor=default;endArrow=ERoneToMany;endFill=0;" edge="1" parent="1" source="aHR9_frTfQv7lHE0gGob-118" target="aHR9_frTfQv7lHE0gGob-114">
          <mxGeometry relative="1" as="geometry" />
        </mxCell>
        <mxCell id="aHR9_frTfQv7lHE0gGob-118" value="Профессия" style="swimlane;fontStyle=0;childLayout=stackLayout;horizontal=1;startSize=26;horizontalStack=0;resizeParent=1;resizeParentMax=0;resizeLast=0;collapsible=1;marginBottom=0;align=center;fontSize=14;fontFamily=Helvetica;fontColor=default;labelBackgroundColor=default;" vertex="1" parent="1">
          <mxGeometry x="-933" y="-138" width="160" height="56" as="geometry" />
        </mxCell>
        <mxCell id="aHR9_frTfQv7lHE0gGob-123" value="Наименование" style="text;strokeColor=none;fillColor=none;spacingLeft=4;spacingRight=4;overflow=hidden;rotatable=0;points=[[0,0.5],[1,0.5]];portConstraint=eastwest;fontSize=11;whiteSpace=wrap;html=1;fontFamily=Helvetica;fontColor=default;labelBackgroundColor=default;" vertex="1" parent="aHR9_frTfQv7lHE0gGob-118">
          <mxGeometry y="26" width="160" height="30" as="geometry" />
        </mxCell>
        <mxCell id="aHR9_frTfQv7lHE0gGob-140" style="edgeStyle=orthogonalEdgeStyle;rounded=0;orthogonalLoop=1;jettySize=auto;html=1;dashed=1;strokeColor=default;align=center;verticalAlign=middle;fontFamily=Helvetica;fontSize=11;fontColor=default;labelBackgroundColor=default;endArrow=ERoneToMany;endFill=0;" edge="1" parent="1" source="aHR9_frTfQv7lHE0gGob-125" target="aHR9_frTfQv7lHE0gGob-135">
          <mxGeometry relative="1" as="geometry">
            <Array as="points">
              <mxPoint x="172.5" y="1221" />
              <mxPoint x="172.5" y="1221" />
            </Array>
          </mxGeometry>
        </mxCell>
        <mxCell id="aHR9_frTfQv7lHE0gGob-125" value="Аутстаффинг персонала" style="swimlane;fontStyle=0;childLayout=stackLayout;horizontal=1;startSize=26;horizontalStack=0;resizeParent=1;resizeParentMax=0;resizeLast=0;collapsible=1;marginBottom=0;align=center;fontSize=14;fontFamily=Helvetica;fontColor=default;labelBackgroundColor=default;" vertex="1" parent="1">
          <mxGeometry x="65" y="1312" width="214" height="56" as="geometry" />
        </mxCell>
        <mxCell id="aHR9_frTfQv7lHE0gGob-129" value="Наименование" style="text;strokeColor=none;fillColor=none;spacingLeft=4;spacingRight=4;overflow=hidden;rotatable=0;points=[[0,0.5],[1,0.5]];portConstraint=eastwest;fontSize=11;whiteSpace=wrap;html=1;fontFamily=Helvetica;fontColor=default;labelBackgroundColor=default;" vertex="1" parent="aHR9_frTfQv7lHE0gGob-125">
          <mxGeometry y="26" width="214" height="30" as="geometry" />
        </mxCell>
        <mxCell id="aHR9_frTfQv7lHE0gGob-139" style="edgeStyle=orthogonalEdgeStyle;rounded=0;orthogonalLoop=1;jettySize=auto;html=1;dashed=1;strokeColor=default;align=center;verticalAlign=middle;fontFamily=Helvetica;fontSize=11;fontColor=default;labelBackgroundColor=default;endArrow=ERoneToMany;endFill=0;" edge="1" parent="1" source="aHR9_frTfQv7lHE0gGob-130" target="aHR9_frTfQv7lHE0gGob-135">
          <mxGeometry relative="1" as="geometry" />
        </mxCell>
        <mxCell id="aHR9_frTfQv7lHE0gGob-130" value="Период процента выходов" style="swimlane;fontStyle=0;childLayout=stackLayout;horizontal=1;startSize=26;horizontalStack=0;resizeParent=1;resizeParentMax=0;resizeLast=0;collapsible=1;marginBottom=0;align=center;fontSize=14;fontFamily=Helvetica;fontColor=default;labelBackgroundColor=default;" vertex="1" parent="1">
          <mxGeometry x="69.5" y="942" width="205" height="86" as="geometry" />
        </mxCell>
        <mxCell id="aHR9_frTfQv7lHE0gGob-133" value="Скрыт" style="text;strokeColor=none;fillColor=none;spacingLeft=4;spacingRight=4;overflow=hidden;rotatable=0;points=[[0,0.5],[1,0.5]];portConstraint=eastwest;fontSize=11;whiteSpace=wrap;html=1;fontFamily=Helvetica;fontColor=default;labelBackgroundColor=default;" vertex="1" parent="aHR9_frTfQv7lHE0gGob-130">
          <mxGeometry y="26" width="205" height="30" as="geometry" />
        </mxCell>
        <mxCell id="aHR9_frTfQv7lHE0gGob-134" value="Заблокирован" style="text;strokeColor=none;fillColor=none;spacingLeft=4;spacingRight=4;overflow=hidden;rotatable=0;points=[[0,0.5],[1,0.5]];portConstraint=eastwest;fontSize=11;whiteSpace=wrap;html=1;fontFamily=Helvetica;fontColor=default;labelBackgroundColor=default;" vertex="1" parent="aHR9_frTfQv7lHE0gGob-130">
          <mxGeometry y="56" width="205" height="30" as="geometry" />
        </mxCell>
        <mxCell id="aHR9_frTfQv7lHE0gGob-135" value="Процент выходов" style="swimlane;fontStyle=0;childLayout=stackLayout;horizontal=1;startSize=26;horizontalStack=0;resizeParent=1;resizeParentMax=0;resizeLast=0;collapsible=1;marginBottom=0;align=center;fontSize=14;fontFamily=Helvetica;fontColor=default;labelBackgroundColor=default;" vertex="1" parent="1">
          <mxGeometry x="92" y="1122" width="160" height="86" as="geometry" />
        </mxCell>
        <mxCell id="aHR9_frTfQv7lHE0gGob-136" value="Значение" style="text;strokeColor=none;fillColor=none;spacingLeft=4;spacingRight=4;overflow=hidden;rotatable=0;points=[[0,0.5],[1,0.5]];portConstraint=eastwest;fontSize=11;whiteSpace=wrap;html=1;fontFamily=Helvetica;fontColor=default;labelBackgroundColor=default;" vertex="1" parent="aHR9_frTfQv7lHE0gGob-135">
          <mxGeometry y="26" width="160" height="30" as="geometry" />
        </mxCell>
        <mxCell id="aHR9_frTfQv7lHE0gGob-137" value="Месяц" style="text;strokeColor=none;fillColor=none;spacingLeft=4;spacingRight=4;overflow=hidden;rotatable=0;points=[[0,0.5],[1,0.5]];portConstraint=eastwest;fontSize=11;whiteSpace=wrap;html=1;fontFamily=Helvetica;fontColor=default;labelBackgroundColor=default;" vertex="1" parent="aHR9_frTfQv7lHE0gGob-135">
          <mxGeometry y="56" width="160" height="30" as="geometry" />
        </mxCell>
        <mxCell id="aHR9_frTfQv7lHE0gGob-162" style="edgeStyle=orthogonalEdgeStyle;rounded=0;orthogonalLoop=1;jettySize=auto;html=1;dashed=1;strokeColor=default;align=center;verticalAlign=middle;fontFamily=Helvetica;fontSize=11;fontColor=default;labelBackgroundColor=default;endArrow=ERoneToMany;endFill=0;" edge="1" parent="1" source="aHR9_frTfQv7lHE0gGob-142" target="aHR9_frTfQv7lHE0gGob-151">
          <mxGeometry relative="1" as="geometry" />
        </mxCell>
        <mxCell id="aHR9_frTfQv7lHE0gGob-142" value="Период процента переработки" style="swimlane;fontStyle=0;childLayout=stackLayout;horizontal=1;startSize=26;horizontalStack=0;resizeParent=1;resizeParentMax=0;resizeLast=0;collapsible=1;marginBottom=0;align=center;fontSize=14;fontFamily=Helvetica;fontColor=default;labelBackgroundColor=default;" vertex="1" parent="1">
          <mxGeometry x="-233" y="1519" width="240" height="231" as="geometry" />
        </mxCell>
        <mxCell id="aHR9_frTfQv7lHE0gGob-143" value="Скрыт" style="text;strokeColor=none;fillColor=none;spacingLeft=4;spacingRight=4;overflow=hidden;rotatable=0;points=[[0,0.5],[1,0.5]];portConstraint=eastwest;fontSize=11;whiteSpace=wrap;html=1;fontFamily=Helvetica;fontColor=default;labelBackgroundColor=default;" vertex="1" parent="aHR9_frTfQv7lHE0gGob-142">
          <mxGeometry y="26" width="240" height="30" as="geometry" />
        </mxCell>
        <mxCell id="aHR9_frTfQv7lHE0gGob-144" value="Заблокирован" style="text;strokeColor=none;fillColor=none;spacingLeft=4;spacingRight=4;overflow=hidden;rotatable=0;points=[[0,0.5],[1,0.5]];portConstraint=eastwest;fontSize=11;whiteSpace=wrap;html=1;fontFamily=Helvetica;fontColor=default;labelBackgroundColor=default;" vertex="1" parent="aHR9_frTfQv7lHE0gGob-142">
          <mxGeometry y="56" width="240" height="30" as="geometry" />
        </mxCell>
        <mxCell id="aHR9_frTfQv7lHE0gGob-146" value="Дата создания" style="text;strokeColor=none;fillColor=none;spacingLeft=4;spacingRight=4;overflow=hidden;rotatable=0;points=[[0,0.5],[1,0.5]];portConstraint=eastwest;fontSize=11;whiteSpace=wrap;html=1;fontFamily=Helvetica;fontColor=default;labelBackgroundColor=default;" vertex="1" parent="aHR9_frTfQv7lHE0gGob-142">
          <mxGeometry y="86" width="240" height="30" as="geometry" />
        </mxCell>
        <mxCell id="aHR9_frTfQv7lHE0gGob-147" value="Имя создателя" style="text;strokeColor=none;fillColor=none;spacingLeft=4;spacingRight=4;overflow=hidden;rotatable=0;points=[[0,0.5],[1,0.5]];portConstraint=eastwest;fontSize=11;whiteSpace=wrap;html=1;fontFamily=Helvetica;fontColor=default;labelBackgroundColor=default;" vertex="1" parent="aHR9_frTfQv7lHE0gGob-142">
          <mxGeometry y="116" width="240" height="30" as="geometry" />
        </mxCell>
        <mxCell id="aHR9_frTfQv7lHE0gGob-148" value="Дата последнего изменения" style="text;strokeColor=none;fillColor=none;spacingLeft=4;spacingRight=4;overflow=hidden;rotatable=0;points=[[0,0.5],[1,0.5]];portConstraint=eastwest;fontSize=11;whiteSpace=wrap;html=1;fontFamily=Helvetica;fontColor=default;labelBackgroundColor=default;" vertex="1" parent="aHR9_frTfQv7lHE0gGob-142">
          <mxGeometry y="146" width="240" height="30" as="geometry" />
        </mxCell>
        <mxCell id="aHR9_frTfQv7lHE0gGob-149" value="Имя пользователя, внёсшего последнее изменение" style="text;strokeColor=none;fillColor=none;spacingLeft=4;spacingRight=4;overflow=hidden;rotatable=0;points=[[0,0.5],[1,0.5]];portConstraint=eastwest;fontSize=11;whiteSpace=wrap;html=1;fontFamily=Helvetica;fontColor=default;labelBackgroundColor=default;" vertex="1" parent="aHR9_frTfQv7lHE0gGob-142">
          <mxGeometry y="176" width="240" height="55" as="geometry" />
        </mxCell>
        <mxCell id="aHR9_frTfQv7lHE0gGob-151" value="Процент переработки" style="swimlane;fontStyle=0;childLayout=stackLayout;horizontal=1;startSize=26;horizontalStack=0;resizeParent=1;resizeParentMax=0;resizeLast=0;collapsible=1;marginBottom=0;align=center;fontSize=14;fontFamily=Helvetica;fontColor=default;labelBackgroundColor=default;" vertex="1" parent="1">
          <mxGeometry x="-388" y="1836" width="160" height="261" as="geometry" />
        </mxCell>
        <mxCell id="aHR9_frTfQv7lHE0gGob-155" value="Значение" style="text;strokeColor=none;fillColor=none;spacingLeft=4;spacingRight=4;overflow=hidden;rotatable=0;points=[[0,0.5],[1,0.5]];portConstraint=eastwest;fontSize=11;whiteSpace=wrap;html=1;fontFamily=Helvetica;fontColor=default;labelBackgroundColor=default;" vertex="1" parent="aHR9_frTfQv7lHE0gGob-151">
          <mxGeometry y="26" width="160" height="30" as="geometry" />
        </mxCell>
        <mxCell id="aHR9_frTfQv7lHE0gGob-156" value="Старое значение" style="text;strokeColor=none;fillColor=none;spacingLeft=4;spacingRight=4;overflow=hidden;rotatable=0;points=[[0,0.5],[1,0.5]];portConstraint=eastwest;fontSize=11;whiteSpace=wrap;html=1;fontFamily=Helvetica;fontColor=default;labelBackgroundColor=default;" vertex="1" parent="aHR9_frTfQv7lHE0gGob-151">
          <mxGeometry y="56" width="160" height="30" as="geometry" />
        </mxCell>
        <mxCell id="aHR9_frTfQv7lHE0gGob-157" value="Месяц" style="text;strokeColor=none;fillColor=none;spacingLeft=4;spacingRight=4;overflow=hidden;rotatable=0;points=[[0,0.5],[1,0.5]];portConstraint=eastwest;fontSize=11;whiteSpace=wrap;html=1;fontFamily=Helvetica;fontColor=default;labelBackgroundColor=default;" vertex="1" parent="aHR9_frTfQv7lHE0gGob-151">
          <mxGeometry y="86" width="160" height="30" as="geometry" />
        </mxCell>
        <mxCell id="aHR9_frTfQv7lHE0gGob-158" value="Дата создания" style="text;strokeColor=none;fillColor=none;spacingLeft=4;spacingRight=4;overflow=hidden;rotatable=0;points=[[0,0.5],[1,0.5]];portConstraint=eastwest;fontSize=11;whiteSpace=wrap;html=1;fontFamily=Helvetica;fontColor=default;labelBackgroundColor=default;" vertex="1" parent="aHR9_frTfQv7lHE0gGob-151">
          <mxGeometry y="116" width="160" height="30" as="geometry" />
        </mxCell>
        <mxCell id="aHR9_frTfQv7lHE0gGob-159" value="Имя создателя" style="text;strokeColor=none;fillColor=none;spacingLeft=4;spacingRight=4;overflow=hidden;rotatable=0;points=[[0,0.5],[1,0.5]];portConstraint=eastwest;fontSize=11;whiteSpace=wrap;html=1;fontFamily=Helvetica;fontColor=default;labelBackgroundColor=default;" vertex="1" parent="aHR9_frTfQv7lHE0gGob-151">
          <mxGeometry y="146" width="160" height="30" as="geometry" />
        </mxCell>
        <mxCell id="aHR9_frTfQv7lHE0gGob-160" value="Дата последнего изменения" style="text;strokeColor=none;fillColor=none;spacingLeft=4;spacingRight=4;overflow=hidden;rotatable=0;points=[[0,0.5],[1,0.5]];portConstraint=eastwest;fontSize=11;whiteSpace=wrap;html=1;fontFamily=Helvetica;fontColor=default;labelBackgroundColor=default;" vertex="1" parent="aHR9_frTfQv7lHE0gGob-151">
          <mxGeometry y="176" width="160" height="30" as="geometry" />
        </mxCell>
        <mxCell id="aHR9_frTfQv7lHE0gGob-161" value="Имя пользователя, внёсшего последнее изменение" style="text;strokeColor=none;fillColor=none;spacingLeft=4;spacingRight=4;overflow=hidden;rotatable=0;points=[[0,0.5],[1,0.5]];portConstraint=eastwest;fontSize=11;whiteSpace=wrap;html=1;fontFamily=Helvetica;fontColor=default;labelBackgroundColor=default;" vertex="1" parent="aHR9_frTfQv7lHE0gGob-151">
          <mxGeometry y="206" width="160" height="55" as="geometry" />
        </mxCell>
      </root>
    </mxGraphModel>
  </diagram>
</mxfile>
